<mxfile host="Electron" modified="2024-03-31T09:34:28.108Z" agent="Mozilla/5.0 (X11; Linux x86_64) AppleWebKit/537.36 (KHTML, like Gecko) draw.io/24.0.4 Chrome/120.0.6099.109 Electron/28.1.0 Safari/537.36" etag="V9q0PHE-v122xFlKAFtQ" version="24.0.4" type="device">
  <diagram id="f106602c-feb2-e66a-4537-3a34d633f6aa" name="Page-1">
    <mxGraphModel dx="1780" dy="1219" grid="1" gridSize="10" guides="1" tooltips="1" connect="1" arrows="1" fold="1" page="1" pageScale="1" pageWidth="1169" pageHeight="827" background="none" math="0" shadow="0">
      <root>
        <mxCell id="0" />
        <mxCell id="1" parent="0" />
        <mxCell id="Lif8JBEafslfNm7ranTe-1" value="&lt;b&gt;Google &lt;/b&gt;Cloud Platform" style="fillColor=#F6F6F6;strokeColor=none;shadow=0;gradientColor=none;fontSize=14;align=left;spacing=10;fontColor=#717171;9E9E9E;verticalAlign=top;spacingTop=-4;fontStyle=0;spacingLeft=40;html=1;container=0;" parent="1" vertex="1">
          <mxGeometry x="230" y="780" width="1120" height="794.77" as="geometry" />
        </mxCell>
        <mxCell id="Lif8JBEafslfNm7ranTe-3" value="Multiple&lt;br&gt;Clients&lt;br&gt;API Requests&lt;br&gt;" style="rounded=1;absoluteArcSize=1;arcSize=2;html=1;strokeColor=none;gradientColor=none;shadow=0;dashed=0;fontSize=12;fontColor=#9E9E9E;align=left;verticalAlign=top;spacing=10;spacingTop=-4;fillColor=#F1F8E9;" parent="1" vertex="1">
          <mxGeometry x="50" y="1040.98" width="90" height="230" as="geometry" />
        </mxCell>
        <mxCell id="Lif8JBEafslfNm7ranTe-6" value="" style="strokeColor=#dddddd;fillColor=#ffffff;shadow=1;strokeWidth=1;rounded=1;absoluteArcSize=1;arcSize=2;labelPosition=center;verticalLabelPosition=middle;align=center;verticalAlign=bottom;spacingLeft=0;fontColor=#999999;fontSize=12;whiteSpace=wrap;spacingBottom=2;html=1;" parent="1" vertex="1">
          <mxGeometry x="60" y="1100.98" width="70" height="70" as="geometry" />
        </mxCell>
        <mxCell id="Lif8JBEafslfNm7ranTe-7" value="" style="dashed=0;connectable=0;html=1;fillColor=#757575;strokeColor=none;shape=mxgraph.gcp2.mobile_devices;part=1;" parent="Lif8JBEafslfNm7ranTe-6" vertex="1">
          <mxGeometry x="0.5" width="50" height="36.5" relative="1" as="geometry">
            <mxPoint x="-25" y="16.75" as="offset" />
          </mxGeometry>
        </mxCell>
        <mxCell id="Lif8JBEafslfNm7ranTe-9" value="" style="strokeColor=#dddddd;fillColor=#ffffff;shadow=1;strokeWidth=1;rounded=1;absoluteArcSize=1;arcSize=2;labelPosition=center;verticalLabelPosition=middle;align=center;verticalAlign=bottom;spacingLeft=0;fontColor=#999999;fontSize=12;whiteSpace=wrap;spacingBottom=2;html=1;" parent="1" vertex="1">
          <mxGeometry x="60" y="1190.48" width="70" height="70" as="geometry" />
        </mxCell>
        <mxCell id="Lif8JBEafslfNm7ranTe-10" value="" style="dashed=0;connectable=0;html=1;fillColor=#757575;strokeColor=none;shape=mxgraph.gcp2.laptop;part=1;" parent="Lif8JBEafslfNm7ranTe-9" vertex="1">
          <mxGeometry x="0.5" width="50" height="33" relative="1" as="geometry">
            <mxPoint x="-25" y="18.5" as="offset" />
          </mxGeometry>
        </mxCell>
        <mxCell id="Lif8JBEafslfNm7ranTe-2" value="" style="shape=mxgraph.gcp2.google_cloud_platform;fillColor=#F6F6F6;strokeColor=none;shadow=0;gradientColor=none;" parent="1" vertex="1">
          <mxGeometry x="249.01999999999998" y="791" width="23" height="20" as="geometry">
            <mxPoint x="20" y="10" as="offset" />
          </mxGeometry>
        </mxCell>
        <mxCell id="RwD-iy4-zBNTc6Mavhsg-63" value="" style="rounded=0;whiteSpace=wrap;html=1;fillColor=#e1effc;strokeColor=#FFFFFF;" vertex="1" parent="1">
          <mxGeometry x="300" y="840" width="1019.42" height="710" as="geometry" />
        </mxCell>
        <mxCell id="RwD-iy4-zBNTc6Mavhsg-62" value="" style="rounded=0;whiteSpace=wrap;html=1;fillColor=#fff0db;strokeColor=#FFFFFF;" vertex="1" parent="1">
          <mxGeometry x="386.4728620260039" y="1030" width="894.8663067437625" height="481.95" as="geometry" />
        </mxCell>
        <mxCell id="RwD-iy4-zBNTc6Mavhsg-64" value="" style="rounded=0;whiteSpace=wrap;html=1;fillColor=#91cbf0;strokeColor=#FFFFFF;" vertex="1" parent="1">
          <mxGeometry x="620" y="876.35" width="625.72" height="133.09" as="geometry" />
        </mxCell>
        <mxCell id="RwD-iy4-zBNTc6Mavhsg-65" value="" style="aspect=fixed;sketch=0;html=1;dashed=0;whitespace=wrap;fillColor=#2875E2;strokeColor=#ffffff;points=[[0.005,0.63,0],[0.1,0.2,0],[0.9,0.2,0],[0.5,0,0],[0.995,0.63,0],[0.72,0.99,0],[0.5,1,0],[0.28,0.99,0]];shape=mxgraph.kubernetes.icon2;prIcon=api" vertex="1" parent="1">
          <mxGeometry x="584.586546976328" y="911.14" width="63.22135258601411" height="60.68907133501581" as="geometry" />
        </mxCell>
        <mxCell id="RwD-iy4-zBNTc6Mavhsg-66" value="&lt;span style=&quot;font-size: 22px;&quot;&gt;&lt;font color=&quot;#6f8498&quot;&gt;Google Managed Project&lt;/font&gt;&lt;/span&gt;" style="text;html=1;strokeColor=none;fillColor=none;align=center;verticalAlign=middle;whiteSpace=wrap;rounded=0;" vertex="1" parent="1">
          <mxGeometry x="862.412870892917" y="972.4064502164504" width="473.322513310109" height="31.68831168831169" as="geometry" />
        </mxCell>
        <mxCell id="RwD-iy4-zBNTc6Mavhsg-67" value="&lt;b style=&quot;border-color: var(--border-color);&quot;&gt;&lt;font style=&quot;font-size: 30px;&quot;&gt;GKE Control Plane&lt;/font&gt;&lt;/b&gt;" style="text;html=1;strokeColor=none;fillColor=none;align=center;verticalAlign=middle;whiteSpace=wrap;rounded=0;" vertex="1" parent="1">
          <mxGeometry x="688.2451570137048" y="925.642380952381" width="499.61820849400397" height="31.68831168831169" as="geometry" />
        </mxCell>
        <mxCell id="RwD-iy4-zBNTc6Mavhsg-68" value="&lt;font style=&quot;font-size: 20px;&quot;&gt;GKE API Server&lt;/font&gt;" style="text;html=1;strokeColor=none;fillColor=none;align=center;verticalAlign=middle;whiteSpace=wrap;rounded=0;" vertex="1" parent="1">
          <mxGeometry x="441.6452376807961" y="977.0315584415586" width="368.13973257452926" height="31.68831168831169" as="geometry" />
        </mxCell>
        <mxCell id="Lif8JBEafslfNm7ranTe-12" style="edgeStyle=orthogonalEdgeStyle;rounded=0;elbow=vertical;html=1;labelBackgroundColor=none;startFill=1;startSize=4;endArrow=blockThin;endFill=1;endSize=4;jettySize=auto;orthogonalLoop=1;strokeColor=#4284F3;strokeWidth=2;fontSize=12;fontColor=#000000;align=left;dashed=0;entryX=0.002;entryY=0.542;entryDx=0;entryDy=0;entryPerimeter=0;" parent="1" source="cEKSAHbCaNsN3OeEtTBm-1" edge="1" target="RwD-iy4-zBNTc6Mavhsg-72">
          <mxGeometry relative="1" as="geometry">
            <Array as="points" />
            <mxPoint x="363.6252116410567" y="1411" as="targetPoint" />
          </mxGeometry>
        </mxCell>
        <mxCell id="cEKSAHbCaNsN3OeEtTBm-1" value="" style="strokeColor=#dddddd;shadow=1;strokeWidth=1;rounded=1;absoluteArcSize=1;arcSize=2;" parent="1" vertex="1">
          <mxGeometry x="165" y="1244.12" width="191.04" height="60" as="geometry" />
        </mxCell>
        <mxCell id="cEKSAHbCaNsN3OeEtTBm-2" value="&lt;font color=&quot;#000000&quot;&gt;Name&lt;/font&gt;&lt;br&gt;Cloud Load Balancing" style="editableCssRules=.*;html=1;fontColor=#999999;shape=image;verticalLabelPosition=middle;verticalAlign=middle;labelPosition=right;align=left;spacingLeft=20;part=1;points=[];imageAspect=0;image=data:image/svg+xml,PHN2ZyB4bWxucz0iaHR0cDovL3d3dy53My5vcmcvMjAwMC9zdmciIHhtbG5zOnY9Imh0dHBzOi8vdmVjdGEuaW8vbmFubyIgd2lkdGg9IjIwIiBoZWlnaHQ9IjIwIiB2aWV3Qm94PSIwIDAgMjAgMjAiPiYjeGE7CTxzdHlsZSB0eXBlPSJ0ZXh0L2NzcyI+JiN4YTsJLnN0MHtmaWxsOiM0Mjg1ZjQ7fSYjeGE7CS5zdDF7ZmlsbDojNjY5ZGY2O30mI3hhOwkuc3Qye2ZpbGw6I2FlY2JmYTt9JiN4YTsJPC9zdHlsZT4mI3hhOwk8cGF0aCBjbGFzcz0ic3QxIiBkPSJNMTYgMTBoMnY0aC0yem0tNyAwaDJ2NEg5em0tNyAwaDJ2NEgyeiIvPiYjeGE7CTxwYXRoIGNsYXNzPSJzdDAiIGQ9Ik05IDVoMnY0SDl6Ii8+JiN4YTsJPHBhdGggY2xhc3M9InN0MSIgZD0iTTIgOWgxNnYySDJ6Ii8+JiN4YTsJPHBhdGggY2xhc3M9InN0MiIgZD0iTTQgMGgxMnY1SDR6Ii8+JiN4YTsJPHBhdGggY2xhc3M9InN0MSIgZD0iTTEwIDBoNnY1aC02eiIvPiYjeGE7CTxwYXRoIGNsYXNzPSJzdDIiIGQ9Ik0xNCAxNGg2djZoLTZ6TTAgMTRoNnY2SDB6Ii8+JiN4YTsJPHBhdGggY2xhc3M9InN0MSIgZD0iTTMgMTRoM3Y2SDN6Ii8+JiN4YTsJPHBhdGggY2xhc3M9InN0MiIgZD0iTTcgMTRoNnY2SDd6Ii8+JiN4YTsJPHBhdGggY2xhc3M9InN0MSIgZD0iTTEwIDE0aDN2NmgtM3ptNyAwaDN2NmgtM3oiLz4mI3hhOzwvc3ZnPg==;" parent="cEKSAHbCaNsN3OeEtTBm-1" vertex="1">
          <mxGeometry width="30" height="30" relative="1" as="geometry">
            <mxPoint x="15" y="15" as="offset" />
          </mxGeometry>
        </mxCell>
        <mxCell id="Lif8JBEafslfNm7ranTe-8" style="edgeStyle=elbowEdgeStyle;rounded=0;elbow=vertical;html=1;labelBackgroundColor=none;startFill=1;startSize=4;endArrow=blockThin;endFill=1;endSize=4;jettySize=auto;orthogonalLoop=1;strokeColor=#4284F3;strokeWidth=2;fontSize=12;fontColor=#000000;align=left;dashed=0;exitX=0.5;exitY=1;exitDx=0;exitDy=0;" parent="1" target="cEKSAHbCaNsN3OeEtTBm-1" edge="1" source="Lif8JBEafslfNm7ranTe-9">
          <mxGeometry relative="1" as="geometry">
            <mxPoint x="-90" y="1006" as="sourcePoint" />
            <Array as="points">
              <mxPoint x="60" y="1281" />
            </Array>
          </mxGeometry>
        </mxCell>
        <mxCell id="RwD-iy4-zBNTc6Mavhsg-127" style="edgeStyle=orthogonalEdgeStyle;rounded=0;orthogonalLoop=1;jettySize=auto;html=1;entryX=0;entryY=0.5;entryDx=0;entryDy=0;" edge="1" parent="1" source="RwD-iy4-zBNTc6Mavhsg-72" target="RwD-iy4-zBNTc6Mavhsg-76">
          <mxGeometry relative="1" as="geometry" />
        </mxCell>
        <mxCell id="RwD-iy4-zBNTc6Mavhsg-72" value="" style="rounded=1;whiteSpace=wrap;html=1;fillColor=none;dashed=1;dashPattern=8 8;" vertex="1" parent="1">
          <mxGeometry x="409.9000000000001" y="1224.3000000000002" width="268.25" height="92.53" as="geometry" />
        </mxCell>
        <mxCell id="RwD-iy4-zBNTc6Mavhsg-73" value="" style="editableCssRules=.*;html=1;shape=image;verticalLabelPosition=bottom;labelBackgroundColor=#ffffff;verticalAlign=top;aspect=fixed;imageAspect=0;image=data:image/svg+xml,PHN2ZyB4bWxucz0iaHR0cDovL3d3dy53My5vcmcvMjAwMC9zdmciIHhtbG5zOnY9Imh0dHBzOi8vdmVjdGEuaW8vbmFubyIgd2lkdGg9IjE2MCIgaGVpZ2h0PSIyNDAiIHZpZXdCb3g9IjAgMCAxNjAgMjQwIj4mI3hhOwk8c3R5bGUgdHlwZT0idGV4dC9jc3MiPiYjeGE7CS5zdDB7ZmlsbDojNDY2YmIwO30mI3hhOwk8L3N0eWxlPiYjeGE7CTxwYXRoIGNsYXNzPSJzdDAiIGQ9Ik02MCAyNDBMMCAyMTBoMTYwem0wLTE2MEwwIDIwMGw2MC0xMHpNNzAgMHYxOTBsOTAgMTB6Ii8+JiN4YTs8L3N2Zz4=;fontColor=default;" vertex="1" parent="1">
          <mxGeometry x="460.80999999999995" y="1244.12" width="34.38" height="52.89" as="geometry" />
        </mxCell>
        <mxCell id="RwD-iy4-zBNTc6Mavhsg-74" value="&lt;font style=&quot;font-size: 16px;&quot;&gt;Istio Gateway&lt;/font&gt;" style="text;html=1;align=center;verticalAlign=middle;whiteSpace=wrap;rounded=0;" vertex="1" parent="1">
          <mxGeometry x="494.28" y="1250.97" width="125.72" height="40" as="geometry" />
        </mxCell>
        <mxCell id="RwD-iy4-zBNTc6Mavhsg-75" value="" style="aspect=fixed;sketch=0;html=1;dashed=0;whitespace=wrap;fillColor=#2875E2;strokeColor=#ffffff;points=[[0.005,0.63,0],[0.1,0.2,0],[0.9,0.2,0],[0.5,0,0],[0.995,0.63,0],[0.72,0.99,0],[0.5,1,0],[0.28,0.99,0]];shape=mxgraph.kubernetes.icon2;prIcon=svc" vertex="1" parent="1">
          <mxGeometry x="420" y="1231" width="31.25" height="30" as="geometry" />
        </mxCell>
        <mxCell id="RwD-iy4-zBNTc6Mavhsg-76" value="" style="rounded=1;whiteSpace=wrap;html=1;fillColor=none;dashed=1;dashPattern=8 8;" vertex="1" parent="1">
          <mxGeometry x="700.22" y="1224.3000000000002" width="268.25" height="92.53" as="geometry" />
        </mxCell>
        <mxCell id="RwD-iy4-zBNTc6Mavhsg-82" value="" style="image;sketch=0;aspect=fixed;html=1;points=[];align=center;fontSize=12;image=img/lib/mscae/Kubernetes.svg;" vertex="1" parent="1">
          <mxGeometry x="759.9999999999998" y="1250.5" width="40" height="38.4" as="geometry" />
        </mxCell>
        <mxCell id="RwD-iy4-zBNTc6Mavhsg-83" value="&lt;font style=&quot;font-size: 15px;&quot;&gt;Virtual Service&lt;/font&gt;&lt;div style=&quot;font-size: 15px;&quot;&gt;&lt;font style=&quot;font-size: 15px;&quot;&gt;(Routing)&lt;/font&gt;&lt;/div&gt;" style="text;html=1;align=center;verticalAlign=middle;whiteSpace=wrap;rounded=0;" vertex="1" parent="1">
          <mxGeometry x="800" y="1250.97" width="125.72" height="40" as="geometry" />
        </mxCell>
        <mxCell id="RwD-iy4-zBNTc6Mavhsg-85" value="" style="aspect=fixed;sketch=0;html=1;dashed=0;whitespace=wrap;fillColor=#2875E2;strokeColor=#ffffff;points=[[0.005,0.63,0],[0.1,0.2,0],[0.9,0.2,0],[0.5,0,0],[0.995,0.63,0],[0.72,0.99,0],[0.5,1,0],[0.28,0.99,0]];shape=mxgraph.kubernetes.icon2;prIcon=pod" vertex="1" parent="1">
          <mxGeometry x="710" y="1231" width="31.25" height="30" as="geometry" />
        </mxCell>
        <mxCell id="RwD-iy4-zBNTc6Mavhsg-86" value="" style="rounded=1;whiteSpace=wrap;html=1;fillColor=none;dashed=1;dashPattern=8 8;" vertex="1" parent="1">
          <mxGeometry x="990" y="1111" width="268.25" height="92.53" as="geometry" />
        </mxCell>
        <mxCell id="RwD-iy4-zBNTc6Mavhsg-89" value="" style="rounded=1;whiteSpace=wrap;html=1;fillColor=none;dashed=1;" vertex="1" parent="1">
          <mxGeometry x="437.8699999999999" y="1333.5" width="482.13" height="157.5" as="geometry" />
        </mxCell>
        <mxCell id="RwD-iy4-zBNTc6Mavhsg-92" value="" style="rounded=1;whiteSpace=wrap;html=1;fillColor=none;opacity=50;" vertex="1" parent="1">
          <mxGeometry x="457.8699999999999" y="1381" width="137.36" height="90" as="geometry" />
        </mxCell>
        <mxCell id="RwD-iy4-zBNTc6Mavhsg-94" value="" style="shape=image;verticalLabelPosition=bottom;labelBackgroundColor=default;verticalAlign=top;aspect=fixed;imageAspect=0;image=https://upload.wikimedia.org/wikipedia/commons/thumb/3/38/Prometheus_software_logo.svg/2066px-Prometheus_software_logo.svg.png;" vertex="1" parent="1">
          <mxGeometry x="475.03" y="1401.62" width="48.95" height="48.54" as="geometry" />
        </mxCell>
        <mxCell id="RwD-iy4-zBNTc6Mavhsg-95" value="" style="shape=image;verticalLabelPosition=bottom;labelBackgroundColor=default;verticalAlign=top;aspect=fixed;imageAspect=0;image=https://cdn.icon-icons.com/icons2/2699/PNG/512/grafana_logo_icon_171048.png;" vertex="1" parent="1">
          <mxGeometry x="530" y="1401.73" width="48.43" height="48.43" as="geometry" />
        </mxCell>
        <mxCell id="RwD-iy4-zBNTc6Mavhsg-96" value="" style="shape=image;verticalLabelPosition=bottom;labelBackgroundColor=default;verticalAlign=top;aspect=fixed;imageAspect=0;image=data:image/png,iVBORw0KGgoAAAANSUhEUgAAAjcAAAG4CAYAAAC5JsY+AAAgAElEQVR4XuydB4BU1dXHz31tZrbvwrJIkV6X6qKAgoA1do1ZjLFrYow99s7aohi7JirRRKNGI4nG2BV1LYAoq4KsCCwISF/YPuWVe+933mq+xERld5l5783Med+HCea9W37nvpn/3HsKA7qIABEgAkSACBABIpBBBFgGzYWmQgSIABEgAkSACBABIHFDi4AIEAEiQASIABHIKAIkbjLKnDQZIkAEiAARIAJEgMQNrQEiQASIABEgAkQgowiQuMkoc9JkiAARIAJEgAgQARI3tAaIABEgAkSACBCBjCJA4iajzEmTIQJEgAgQASJABEjc0BogAkSACBABIkAEMooAiZuMMidNhggQASJABIgAESBxQ2uACBABIkAEiAARyCgCJG4yypw0GSJABIgAESACRIDEDa0BIkAEiAARIAJEIKMIkLjJKHPSZIgAESACRIAIEAESN7QGiAARIAJEgAgQgYwiQOImo8xJkyECRIAIEAEiQARI3NAaIAJEgAgQASJABDKKAImbjDInTYYIEAEiQASIABEgcUNrgAgQASJABIgAEcgoAiRuMsqcNBkiQASIABEgAkSAxA2tASJABIgAESACRCCjCJC4yShz0mSIABEgAkSACBABEje0BogAESACRIAIEIGMIkDiJqPMSZMhAkSACBABIkAESNzQGiACRIAIEAEiQAQyigCJm4wyJ02GCBABIkAEiAARIHFDa4AIEAEikCICUspvfca2/+X66xlUVyvQ2mpAs6aBcP73c1hvE2DuZsOp0y33kSr8M2vWLPmfw2SMfevvKZoCNUsE0pIAiZu0NBsNmggQAU8JuCLFFSUvvKCWaD0iCUfkci7yTLBzISEjmjBzpckLFGnnK4pWooZDpaAbJZqh59uOEwZghu3YhsOFAahKQGUa/jsd8GZgoOB///qz2P2nBAFCcPyLBZI7IKVQGbM0VTelcBK6oiYE560geIswzR3CdBqFAs1M0docg0VBDUVB16LYZBuEQ63gbIvDwIECnnlGuGqIRJGnK4c684kAiRufwFO3RIAIBJCAK2ImTIjkNYtc27QLhCbz1Jxu3WyQxVzA7qCrvVTN6InqoxhHX4BCJAeFSBj/5AJ3/5MbKB800FzRgoJFuqIF//xLujB3Jwf/X8F/p6j4v7t/kShuvnWhBsFdGYk94tYP3uMKnm/+iX9vv9r/vSuC8B5hA1MsbDOGYikubSeOcqkV/10TCLkdx7QNx7FDNfR6TYHtCucN3Iq2qoy3hB2tbWAxxGoWL3ZwmLQTFMAlSUPqGgESN13jRk8RASKQrgSqqhSYO1cr0ktzTFUrYCC6Ww4rdCy7B2hqL9QcQwSXuwPnuzGHF6K+yAdNC7FwKIKiQv9m2unw2fmNWGE2cJtLm1vgOAkmRVRqeivu7tQrirIZxdFqxvk6VGDrWUhtVoXcoSfU1m6J1dE999zTnjt3Lu4i0UUE0otAOryg6UWURksEiECgCLh+LzNmzFCXNzSEWk210DLyhjicDVeEHIwfgANQzPTjmlaK93UDVQkxpqp4EvTfuymBmlOSBoP7SkzgBpGDO0AmgNiu2M4OcMRayflaZLOCGdqXmhlbE1HUxl6RRHzkyJGcxE6S6FMzKSVA4ialeKlxIkAEvCRQWVmpzv3kE63QiuQkinuUOrYziKnKCDzDGSoAhkvT6o+7MCW4C5ODJzuql2NLq74Y4zKRMFHooFuR0wQa26iq+ipVY6txG2e5ItXVBsitedsbWkeMKDHffvttTr48aWXhjB8siZuMNzFNkAhkNoEqPGaa88IL4UansNiWcji6oYwE0xopdbUcdL0v+qYUIoEIihqdBE2X1gJqQ3RwdnCHR0H3aS62M9PagDtfa2TYqGOK+pnGxYocM7pt7O75URI6XWJMDyWZAImbJAOl5ogAEUgxARQzZc8+G2lWSkptroxgwhmDfrkTuJDDQIU+6EgbZpoe+g5H3RQPLNuaxyMt20Y/Ht6GR1pbMKJrFRPwMfo5f6aqrC6isk3ju2mtJHaybV0EY74kboJhBxoFESACP0Rg+nSteH1rblRR+nAtMkza1kSpsJEyFBqBx06lGHMUQVGD4dXfxCURTa8JoKbBsHUho9JxtjHTWYfxYCvUcLhGU9QVrKVpbS+9R0Pdqpctisry2jTZ2R+Jm+y0O82aCASbAO7O9H/0UWOrlVdql+020LGsPfBIaRQejVTg7kxfFokU0hFTsE2IIobLeLwFBc9W/FOrSPGREtI/VXW2Jn/D1i0zZoyJkXNywG2YxsMjcZPGxqOhE4GMIvB1jhkNs/ZG9JycEdxy9sTdgH0gFB6LmWD6YQ4XPGpCaUNXuhH4eleHyyiGom9SHL5KCvGBoqsfhjTj8+ICs3nDwQebUFWFPt90EYHkECBxkxyO1AoRIAJdJOA6BFc9/V6xpvIRYJpTHIXtA4a2F1P1IkxMh0nx6Mo4AlyY0jKbMMJqucGUpY6Ur+ugL+tjh7aswqMrirzKOIt7PiESN54jpw6JABEADNkurlmT1yZFf5FTMJELMR1zzIzDL7XdUNDkYvbefyXLI1iZS+BffjomHlttkI79BZareE8X/EPNjn+xuz6wZdmyZ2wSOpm7AFI5MxI3qaRLbRMBIvBvAnjsVNZzbE5Tz9LephkfjTUIDsIQ48nA1N1Z2ChoL1dAV/YScH10YvEo5tXZirW3FiqatjAcCi/W6jetOXjyyGbyz8nepdGVmdOHSVeo0TNEgAh0nABGOhXUmwVxSw7hujFVWtY0qamjmRHeDb/E6Nip4ySz504uLIy6alBd/xyA99ER+S1dRlf0TnTfRsdW2bMMdmWmJG52hR49SwSIwHcScEsejBo1Sl/tdOttg5iA5QwOEKo6HfPP9MOikq5jMF1EoGMEbCeBQmezKmGJoqivM02+XyiUL6ePLI3Tbk7HEGbjXSRustHqNGcikCICrnPw7+ZW5zQL6O8Ia6oU8hDMRTOeKax7e7QTHT2liHyGN+tWR8eUgRhl1cgS1udqSH8f/XPe1eMtnwzN5S2Lsao5+eZk+Bro5PRI3HQSGN1OBIjA/xJwRc3dj/6joC2vYCRY/HCuqtMwsHskM1xfGkzaTxcRSBYBFDrS4TH00PpK4847uBv4BoqdDyfmWpurq6udZHVD7aQ3ARI36W0/Gj0R8JWAW6jypWVrenDIHW9KcSQOZhILGUPcEggkanw1TRZ0jsUeBI9Ly96gqOonmJ76JcWKLuhp5W768su3TdrJyYIl8ANTJHGT3fan2ROBrhFAURP5ZMVuVqhoD3SvqcTKipNA1XZHfxpyEO4aUXpqVwgI4WDF960oaBZrjL1ihPWFpQ185dq11YldaZaeTV8CJG7S13Y0ciLgLQFUMRWYQfhzx+gRt5UxiiV/IhQ2heWGB2JJJ7euE11EwF8CEiuXm049lnpYipF4T2uCzS8tsjdQBmR/zeJH7yRu/KBOfRKBNCPg+tTc9sLCMjMR3xPz0vxSKLA3qGpRmk2Dhps1BLBieSKxQxXiM0VX5ipa+M1RasPampoaO2sQZPlESdxk+QKg6ROBHyIwHXPULNpklnFdm2rZ4qdM18eCrvbGqCfKIExLJ/gE3J0cLndI2/48ZISel8Df7NUCdeSTE3zT7eoISdzsKkF6nghkIAE3T03BhBnd4q3OOPx2cEXNfqCpfbEsAh0/ZaC9M35KUnIUOPWq7SxWdG2uque8e8SQ/K8oT07mWp7ETebalmZGBDpPAEVN0YAZhW0aH+uo8iTgYhLLjQyhApadR0lPBJCAu5OTMDeClIv1UORplZsfTizVNlEIeQBttYtDInGziwDpcSKQKQR6VVTkbDeLBjvRlqOEEToaQ7pHYTFLin7KFAPTPP5NQHAHHLFW4fw9PSfnCcNs/bR52YJGCh/PnEVC4iZzbEkzIQJdIjB48ODQV6E+fTH969GCi6OwiOVozFOTT3lquoSTHkofApj1WJhg2at0lb0mmfp0YYG1sv7999tI5KSPEb9vpCRu0t+GNAMi0DUCeARVOGZqUZvUZwjLPgFC6gzQjEIASRmFu0aUnkpHAihxwLajwPliTdeeNXLUuYfuXrKd/HHS0Zj/HjOJm/S2H42eCHSagOss3HPs2JwddlGFVJSTuBAHsLDeG3PVUARUp2nSAxlDoL16ld2gCj7PULV/aCF48+IjpjdgGgSRMXPMoomQuMkiY9NUiYBbLuGfy3f0F+AcbtuiEo+gxmNByxwik2ICjHHcEZPYiwQH5SWe/+F/2/nFMOhe1RioeEiI6hMkw1012lnbObhduMO249K01xih0PO6ofx1OGtaTvlxdoGnT4+SuPEJPHVLBLwk4Cbhu+vv8wqbbZjCpDwDNH0K6Fox+dV0wQruMQYWNcJ/ctQrWKhR2ihBbBSJ+J+KrTKIYfXqKP77mGBqVFOUKO6OtagKi0rOE6hq4rhHEEV9g4Ln+y+FoZBhMoKaJkfV1QjenadqWr4QIh9LkeZj/xG8I8Il6CiXQuA4BgomHcdiYHQb/idKIozdJxt3xcYoRLloBcf+RNG0R/Ww9m65aPyKRE4XWPr0CIkbn8BTt0TAKwJuIr4Pdmi7W7HWY4Sm/xzLJQzGL0HKV9NRA0iwpOMIFAkmU9U2TVW3qFLUo1DZyC2xCcsabWISGiEUamGaGjN0PYqqpUWRTlzVwdTNQjPXAKuw5XNeW1oqoLRUQnm5hFmzfnjv5vrrGdTWMqivZ+X19UpjY1iLDe1rOFbMcECLYGmBHKHwPGGLiGPyHGnFcxVblKhGqK8a1vtJhfUUknWzQHQXtl2AIinMsMIkhfV31PDuXhnuuFnWZg3ka5quP1JWyD9ZW031qjpB0LdbSdz4hp46JgKpJeDu1tzxQk1JwokeYiesM745gspvP96g6z8JuCIDT+o47r5AAndVtoDNdzCVbcDstl+hGKhjhvqVAtomNdHaFNK15lwjbhYnEk67WJk+/WufjP8UKwzljhcX+k99qxtXEFVXK+1iKIxiiOcbpojncSgs4qrTVwoYBFL0B9spFTYvw7n1ZKFQT2wDd4PcHR/FbQ93fOj6NgHcbTPtL1RVfUJj+nPl+o4NtIsT7DVCH3LBtg+Njgh0iYC7W7NguxjiCHaSVJVj8YtrIH5x0W7N/9PE2kOWFcNjpSaUehsVRV2vSajjwOu4qqxEh9IdWryxKbSlMVZYKMy1/fs78u23ebqGCLtO5DNmzFDr6ur0qGEYdpSF7O59C0wueqiSD8AdnQG40zOCK9AHw6P7o29PEQuHcpEPCZ1/rRnMcoxRVRsVCfP0SOSJPj2UBXWvvGJ26QWlh1JOgMRNyhFTB0TAQwL4JZY/bEa3REQ7wrHNn4GqTcayCbkejiB4XUmG3jGOhT4wjZKLreiVuxb9jlaoodByTbLV0Na8LlczmvrlJRJHHHEEz7bomH8Jn2Wb7UiUO4VQmN8fd3gGWmZiBO5cDZC6PgjXUC8UPUVfJ3XM8grwXOBJn/OFJuWfNAg9e/jI4o0UNh68157ETfBsQiMiAl0i4EZCvbBkbT/HyD0ZnUxPAQMLXGZteLe7M2NG8bBpB2OwWlXgU8nZEvSZWa2HlA0F9rYd+w4blnjmmWdEuu7GdGmRdOAhV+zMnDlTeXfFinCrWlZoM7m7QLHDbGskBnqNQpE4CivDd2eakpvFtca4TJibNMGfNXTjiQGyfmltbS0KaLqCQoDETVAsQeMgArtAoHhgRWGrkTPJEeJ8PE7YF39h5+1Cc+n3qBu15PA4+szsQH+ZdUyyJUJji3WdLQ+1NKwfVqQ31ixe7KCDqDe+MOlHcKcjrqio0FdG1QJu5PVzGB55xs2xmNV3HIRDw3BXpxuoLAejxbIqV5K0rRhzxGeaqjwQMltfvuTEo3Zk287fTheOTzeQuPEJPHVLBJJBwP2V3XvChMjW1tAJGG58OsvJ2SOr6kExcDB9fgu6wa5QJFsgOH9f1dQv8uLxTQ19IrF09pNJxvpIRRv/2tmp/vzzSAsrK3OYHKVKuSeuv8mcO8PQQRmFjhrCvrPj+8X1xeHOaibEE4bQ/3zEqG4b6JgqFSuvc21mx+LrHBO6mwikBQHXaXj+FjaW2/GTZTh0Ohh6NuzW4M6LNDEHyXrVcT7HM6V5qioXFppi1YwxvWL0peLP0nUj8x59tNpYG4n3VQF3DqWcgTtno0HVBzFFicjMTzyICQPsNhQ5bxtG6OHS3Pi8DQsXxv2xBvXqEiBxQ+uACKQhge7D9slvjeRMNaOxc5iuTMIcKyVpOI2ODrk9MT7E4/WgaUukrn6gMfU9TSjrCrcu2bb1V7+KA6XI7yjL1N6HO4m9eveONHYfWmJL2ReTA02TQk4GxxoNRqQXaO1V5jP3e4dj8kbBv8BcSL8LycRLbUvm19NRaGqX3Pe1nrmLzB+e1CsRSCkB12n45eXru0ed0EmYmuVUlhMelqEJ+dwMsTYWM2zAX/0rFEV5L6xqH0Djxo9j3XO2Q02NnVLQ1HhSCJSXlxtrY6wY8ktHxQWfJIScwhRWjr45pShUM/boSpoJTC3A/h4uyHt4mLNtFeXEScpy6lQjJG46hYtuJgL+EXCFzfMrW4aLttafOoZ6BgsZPfFXYWa9w25pA+GY0ubrUdB8onLxFqjywyLQVp9TOT1Gzpr+rb9d6dn10+nbd+/wtuJQP3T8HucwOEgoyt5YYaIv+ueEM65EBE5YWnaDLuFFNRJ5pJxt/4AEzq6soM4/m1kfjJ2fPz1BBNKCQK+KipxtovvePJG4DNxjKFV1Mw1nzuVwzB0iG9BnYQkGcb+rhozX8uOxVTtWfdBKodqZY+Z/zaS0fHpek6oM5bZ9AONyqjC0CSjUizGfjrubkzmXBBMT/32u6+otIYO91bJoXgOtZ2/MS+LGG87UCxHoGgH8xVs6Y0Zuw3Z2KOf8XKbre2HIbeb4LTAFI00wF00i/jqWO3hV09TF+eamTduPPz5KfjRdWzLp8pTrhHz/U0/ltmq7lQkp9uVSHiAY7M00rSyjoq2kcMA0l+ma/rQu4LFLK6dvox3I1K9SEjepZ0w9EIGuEUBhE97jsN0tM/YT/PA/i4X0AfjrNiPS4TNNB6W4F/DS4U1hPfSx3rjxtpLmre+srX400TVY9FQ6E3Aj/2q2bCmMG7uNQyFwINf1I1Dg9MOSIZmRXRtfYGnb9ZjV+ClFgT9cVbn/FyRwUrtiSdykli+1TgS6RgD9a8Irtu5uCfVCIfnRzAj1wRBopWuNBeUphon7UdQUlQEM2RugzyhwIsUORGPbtS1rnlK3rn7oSFhcR+HcQbGXD+PAdV/w+YZCSwntgdmQZ3DTOgByIsMwEzIew6b7+kfXf8tuRJHzmq6K23uXhT+nCuOpW2MkblLHllomAl0i4EaYrFC6Vzi2wDBv7Rj0Q8jpUkMBeojpIWA9BoI6ZCI4fceB0CPfHl1z6zao3/yc4TTeN9puXVkz55cUDRUg+3k9lP93QC7KGYJJAg+RQhyOu5YjQdeK0l7k2I4J8cRbWHzz4R75iVcoH05qVheJm9RwpVaJQJcIlI05KLdJgb2tRPwi/CCfmt5FL/HjRTdALe0PbNg+wHsOBxnOx4LT37kBJaG1bTtsr39Wl9GH9yn85NPqqiqnSxDpoYwh4IqcnmMPzmlg8XIp9QMdwY/C+mAjMJQcSz1gsY10vRw7rlhOrRo2bskLx+Y1LFrUkq5TCeq4SdwE1TI0rqwjMPiQQ0Lr6uWJGEJ6PlfZCASQvnV6FBXUnoMABk0C2X88cL2Dm0/xRAs0N8/Xeeu1Q1cv/Kx2bhUVI8y6N+G7J+zuaK4K7TZI2M6RUsLRAmAU/gBI76zclr1KZeyhHGn+qWXZgkZK+Je8xU7iJnksqSUi0DUC+Os0f8TEkphecCxn4jL8Zdoft97T03FY1UAp6QXqsKng9BkNMlL4fTs138MKC1tyLIDZ0PCG6sQfGtC69K26+843uwaWnso4Ahhh1f2pN3KbNX0QRlcdKhnMxGSAg3EXB3dy0jDnk5t727TWayr7g2bHn0p8sWgtCZzkrFoSN8nhSK0Qga4RQGGTM3zKbglNPwkdh3/BDGNgWn5I4/eKUlgGyqA9QQ7GbPs5WA1iV75rhIxBa+tijZs39fny1ffWPlpFUVRdW2GZ+RS+N92HD89ry+0zzklYRzsSDsEQ8oFpmidHyri5UVPYs5qw7rripz9aT5FUu75sSdzsOkNqgQh0jUC7sNljNytUco7j2CcxQ++TdsLGFTU5haDsPhr48OkgC3tiTIvWNR7//ZSQGEkVna/asdnjNi6dR07GycGaSa24uXLu+Et1SUy1JkqmHi81bTqGj5fhe5SkRegRLTejsW03akI8Hjb0PxwytPsXFDW4a+xJ3OwaP3qaCHSJgPuhPPvZRb1Ms+1MGdLPBlVxC1+m1/uIpYG03kNBlh8AoscgEEoKXIQEJkCLxT7QbOuKPmuW1ax99DTawenSisvsh1zH49wJ+/a0bfVQwcVMLNg5AXS9GN+otHqnpGk2qFK+GI7k3bFnQeLz6upqcqrv4tJNK8N3cY70GBEIFIH2GlF1bcN4vO0sYejHobApTSth4/rVFJSCMvog4JirRmAEVEp1mYQEHlG9qTrWQ8OXvfwaORkHajkHZzAocPoPmBHaFLEGO4p2mBRwIoR095jXzTuQHt91qNJAimbFEa+EDOPOvQrtT0ngdG2JpYfBuzY3eooIBI6Au2Pzmxc/Gikd81KH8yPQRwDzdqTJB69LUw+DPnJfkEOngJ2Pyfi8uqRMQDT+sQaJq8d++fF8OqLyCnwa9oMip9eECZEdTuEUh9s/FVI5BKOqStMquzcXbWA7b2jh0G+GWpuW1tbWUtRgJ5ciiZtOAqPbiUBXCXy9Y9MwjNtyllCVwzBLhxsfnR7vIO7WqL2GARu5Hzg9h2EsVwqOoHYGVqIPTiz2DjoZzx677uNqEjg7A5bd/7tb0mHRJrPMMfQfOVwcD0ZoUlpFVaHAwWOqN8Mh474+sfD7dXWvUNRgJ5Z0enywdmJCdCsRCCKBdmGzsmW4E49dICP6iej0+F8peoM46q/HxFyH4aH7oG/NfsBDbloRHz82hIxDLP6WzhM39Nu6cAmFiQd33QRlZH36TI5s7REeKSxxOhafPZhFwv2wEEJ6OBw7vE0R/B0WNm6dku98QEdUHV9VPn5KdXyQdCcRSGcCrrD5x6qm0dyyLpWacigWBHSPogJ/Mc0ApedggPFHAC/p689uzXdRkhDDelSvacy++5iauvlz587kgYdJA/SVgOtwnDd6Ug9by93XtuwzQdH2At2tV+WnUu8gEolpESy7WtOUG8forTV4UWmSDqAjcdMBSHQLEegqAfdDNTzusCGYqet6h7Fj8Cgq1NW2vHyORfJBHY1RUAMnAs8p9rLrjvUlRFQ1zbe1LSsvNguW1kFVFSaspYsI/DAB96hqfjMrBw6no0L4KVPU7mlRxkFIC6ulv6QZ2m1Def3H5IOz85VO4mbnjLL6DvfL2QVw/fXXM3yhWH19Pf4pVZoLNqhmn/GqU3G6yo2IKriDKRq4JjVHjVsMHTKUf9d9UW0GpibCEcVhCv5hjlBUxVE1vPmF2VzfWM/ze6tOn3icl5aWSkyzLmfNmiXdfjHpaPt/puPVfhS1unGobTo34K/Ew76J2gj0VDA7MrCeQ4G5kVCubw2WUQjshTs4Smvsaa3tqzus0IdfkMAJrKUCNTDXqf+ueR8VxtriRzmmfTyEjClpEVEleFy1+buaqtxebrS+Qzs4P7ysSNwE6rXzdzCukJk5c67yUW5Ubza2hswRR+bwSH6eYtnFTGG7aarsqyism5BQHNFZAZYIyDUdpgms8WwJTJolQXWE0BwBxrfyS8j2v0mNMVtT8TcT4APAHPwetQyVOfhczBLQJDlsxba2WQ5sVSRsEYpsUpsbW2OfzotBz5wEbOnpwDOVmMIi+ILH/QC95cWPh/B4y684Y6ehuEFewb6YkQPakL3AKT8QZF53NEsaXBavVyzzL6H61XfE7zhqQzqsjTSgmhVDLBszJreFdS+3uLiIAzuA6Wq3gE8cizWIGJj2q3qOccNVR05dRpmMv99iJG4CvppTMTxXxAw5/z6jvtf0HBbmhVFTFtoOFKqRvFKpq4NVVRmqKKKfFKwUX/wccCCEhZzDeKQSxi8PPFZhGv4d5Yr8WmX8x7fgzr4Qv7Xg8C/tf0exgjkp8FFp4z8T2K6Ffcfxf4yDCq14x1b892tRFtWp3FnLE9EGQxONuKfQHMY/jTUvxqvKwQnMi+4eRY2ZOoCzyHW2Yx3OQnqwPzRdY2LpBLXiCHB6Yz0o9LVJm8sVugkHBU5ijhGtfzhx8/7r0mbsNFDfCbT/CPnb6wOkGv6J4zgnS6xZBYr7GRfgS7hRVNYLuqrdNibcWks7ON9tKxI3AV7DyRpaVZVU5myaE26F1hwzv393ZXBFT9viQ3E7ZTgwOQJPkHrhjksJVjjMxT7D+F2no9IIUDQBQ+mDYcCAMkug+AEZxZ2krQqXG3BTaLkQcl3IUNdqIDYpC57bnJ+fHzuz15mJqip8zocrb/zU0gTLu5AL6xwUbu6OTXDfMyyfoPUZCQKdhkU3DCJB46fd1S5wrPWKY99fun3TA1tvPziadnOgAftGwP2xVzx+RqEJ2qEJ2zoVVG0aJtYMtMKXlt2MR1TPRCL6PZccM215YH7Y+WbF/+04uB+6AYKUTkNxX1Q2Y4Za0nt6jphwXElCYwNBDQ3GtJd7CilH2gKwgi7LQ7GgfZPUSnF3YNJpju1jdb/Q3P/DdJ74N/dPHKVMM3r61CkMVuHfl0jbXJULzhrFtHYMnDsntnjxQ+jvk8IjLTciY+zBpai+zufAfw4q8zDLXectyCIFwIZNATkKHYcNV9em8dUucOz1mPisqsRc92xD1eNMLVQAACAASURBVKEtaTwbGroPBMrLK411av1QR9MvM7nYHz9jegbZ2VgmzB3o7Pi85shbzLoFq+lI9tuLJv2+1HxY9OnQpStqBpz2aGjzuGn90IllFO5oTFSYLJcqjMJv/hJUAe3HSWkpZDpjAPdLTuDxFkACF3e9KsRy/O/LFFX71BU83XfsWH8mvIi7OsmPrikad3RRVHV+aieiV+L5PRbBxIO8gF5Kbkn7MZTdvwKPoYK9C98JhBzarEWqdG4Zt3bBa5TkrxPk6NZ2Au2FOF+rGcoTiZ/FzPjJTA/3xbc4mO+xW2wzYW7XuHwwwhL3tq6s2U5m/DcBEjdpuhra/WYOPdTYuM8t3e2cULmih6ZwKcdxLstxxwDDG3F3pt2NNw13ZZJpk693agQ4shVZbEU/nS90Jpc4ljNfV/XlZZ+9V39q/3XWrood91ff8jzzPBGPnstU1j+ZU0hqW3gMpfYeCVBxFDiYuwbS8Rjqh4BwDJlNOPM1yW+a8trcd6urq6jwYFIXUOY35n62dhsyKb85kjMDd7svBE3bGz9JA3tMhQJni+bYD4eFcl9b3fx62sH5eo2SuEmzd7XizIf0FYooFsP2rZCh8LSEA2PwIGoQTsPdKYhkvZjZmT0l+u1IzHLL2EbG5QpdVT7TzOgHsGrexwN69d5RO6vS7uyHgytsatXmKaDIB1E7DMSjskDGTzMFSygM2APEuMNAoAOxG8SWkRfHpGem9WLIMq8xrxlX11l7ZiQTmlSnCfSZPDmy3SnYx7GsSxxHTGaGHsyIR3evOhpdo0q4pUBYf29cU9Pc6clm4AMZ+umWOZZyf0X03XtmeMfRF3ezc7oNFkLdB71rp+H30mj80x1nGiDH33TkjkdYDmzDkS/Fvedq9Nn5SG/8alVZ9WPb1779J3NnX4wVFWfqS4z6/Z3WlsuYzmYElQAL54E2an9wRuyHcfgYY5bplyOiYDp/jDDttsvjT27a1Z25TMdF8/tuAm7Sv49ioXIzmjjZEfI4FjJ2C+RxM8Ofaq3RZbqh3l8ajv1lU01NLNttSuImoCug3YfmevShKdirj6OHpwKXB2Oxxb3wjMV9uUK0Q5Nsw7kRWSLGBNuoCPkB/hZ6Q7NbFpVuW73xqzsrE9/liNxe4fu1z4babS13gCKmYwipWwgzcJeC2YZh/OEgB08GkTn+NTvnnOAbFJvfVWBt+WNT1YymnT9AdxCB/yXgvuezn13UyxbRn3Om/ByPqXoHkpMES7Xt5SCd844p77Vg7ty5WV2WhMRNwFZpeWWVsXq/U3ph3plxOhNHOQwO5JL1RLETyKOOgOFLznBcPx0u45h9Z60i4C1MM/iSrkLtwFZza+2skf9/bGXsf9pIp3nHNdKKHot+TsE7k3f9a7qhP+SEo8DqNSo5bNKqFbRjzFmNESW/7f75R09uffxkChFPK/sFa7BlYw7KbWDOTG4550pdQ99GJXie+LiDA62tr6nh0E1TurGPsrnQJombILw/uEtT8cs52uel/Xs6PQbt50h2pFSgAl2iytprEWW7U7BfNnI/KLiIgyVW407OYlXhL4XWrVo0wtpSv3rb5tym7V9cAW0Nv2RMBLAQJnqTl/QCdZ8TwenePz3z1yTD7gLzI1l8EWbGvtJZeM0CyPJfs8lAms1tFI6eUhwX2sF2In425EYmYU4cLDUTsAtz4DDbeV6PsJuvPOaAumw9kiVx4+O6dLc7fwfTchpLdx8nOOyHfw7EpHpjcBcgmI5rPrLyvWs3vDwhNmMulYWKuWO+uvKNwU7dhycC4yW+j+2/BoDFAEHpNxYzG/0YeF5p0Ibn/XikNMEUrxsN66+wQu9TDSrvLZBRPWLtO2OFXbwXl/wyiIT3B1UN3nG0ZbcyzueEcsP3xmvmrc8oA3RwMiRuOggqmbe5oub+2PjcaO+xo03gB2IuuiMw4mko+my4yfXIJsmEndS28JjDdNpg48p6+OSvBax5s+vQHazLTS89YBzwCccCz8WqD3g0RRcScGSjYjn3R+Kbfx+dNX3rzhzFiRkR+CEC7QJHdp/IuXMxGMYBoKlBy4Ipwba/xDK4D/RoaP39pk3Z52BMn3wevsOuqLm7em1B27HXYDwuO9yRcDgeO+3e7iBMV1oQUBOtwKrnAN+0MnjjxR0bbRRGQ40+GHgInYjp+jYBi6MPlbinYOPyR5vuPoYcjGl97BIB9/P85rnzRnNbnI0+OD9BkROwXVwMkjDN9YquXlymtbyabRFUJG52aXl37GH3JXigbWCkZdCUctsSR3IJP5aq0o/y0nSMX1DuYnYclE9eBPH525gWMGCBCBgFxYbtA+DmsAnlBQVZwMbRfrS4TLNarzzm01vnZXs0ScCMk5bDcUPFF2wXQxwuf40C56d4ROW+fMH5XpUSQyMSb4Qj+uwjhpS+l01rPjhGSMul/cODbs8ifN8rxjptxHhmi2MchVVivDGmhaXcNOlmbkz1DMqyN0B88hKAjdWjgnSpOrCxPwI5cj+QRvCO/4OECh3DXQfjlwymXGVdPHg5HU8FyjppORj3cz4yfkY/25GXCqYch0dU7g5OcL5bbadNtax5GEF1xZU/nrYqWxyMg2OAtFzW3z/o6VVV2gJzylDZe8BBNoef4VIfhj41+eRTk4aGlhK0+joQbz+C9cgbAzUBFsoBZchk4HsclUk1olLLmMtGcPhD+Uv/fnvrn6/akdrOqPVsIFBZWan+c3XLAJ6I/5Ir7HjQ9V6BETjtNagSDZqmzQlB4p7oskVbs8EmJG6SbOXKymfUF6dU9HY0ZT9HiJMkhz1AhQCGCid54hncnNq8Bdj8x4FvqQvULJkRBrbHkSCGTkVhE7w0O4GC9a3BuI7hfL3KZFX3zR/M3Xo75b8Jrq3SZ2TuDk7OhAP7mlHzVDyiOgd3cNxQxcB8x0rLWq8Amz3QzHmkru4VM33Idm2kgQHfteEH6Clc2EXX/6OwrfvYMXjKeYpg7BB0FnaT7xHjAJmps0Nhjgnqor8CX/VBoPxsmBEBVj4D+JhDAFQSNp21Kyb+QWdLPk9jyo3OoisWUv6bThOkB76DgOtf+du51T0sgGtcN4SACRwOCbMmrIcuGMg3f1xbW4vDzNyLvniTYNvyqmeM1T0m9nEc+wwu2LGYS9gtZEk1n5LA1s8mGLdBW/U+OIv+DoD/PTAXFsBUxh8KovwAOoraFaMIiKoWf95Y/+Hl8ftO3LArTdGzROA/CUTKD9idg3UmpjM/Awy9LDA7OA63FMt6LhzJubXtk9eXfFdZmUyxJImbXbCke876yl7XdLMiuftZtvwZpuOeRn41uwA0UI+in83WVSDefRRka4DcMtyoqOF4DOXWitIjgSKWdoNxy2zYfAfEW2+E1++dA9WPBsxTPO2I0oC/IeB+N7ywYuvuVsK5RBr6T9AHp0dg4JjmNpXLP+WZbbc2rf00Y1MikLjp4opzd2vW9NhzD8cRJ9oSjkBRg8XUqP5TF3EG7jEl1gjsnUdAbF4VnLG5taLGYA4bzGNDUVFJNIvFP9QU5cpjFlz5TjaFyiaRIDX1HQTcI6pb/vrWIJPbv2JG6Bega8HI0SCkkIn4V6qqXzqcbX8+U4+nSNx08rV0F+xtcEBPUdrrAAz9+wX61oyXTAYtO2UnZ0W3/ycBhqHe6pKXgNe+hcdRTiDgMCxhow6eiJmHfwzCoOWWVKNwiIIjXgzL2JXxS8aszeSt+qRyo8Z2SqBd4Pzt9QG2CdfLkHE4CpzCnT7kxQ1uaeBE/E1dVa69unL/xZkYHk7iphMLya3Y/eUBp46yTXG6DeJIUJQ+FNrdCYBpcqv25YcgFv4VZKItICNmoA2bBGL8UcBzigMypgwahns8ZfEdmoTbc+vemNP8wNnBivfPINTZOJX2TMZ/q94Dw8TPk5EwOhkH5DwZ898ocfOJkJa4MfrFx5szTdSTuOnA2+ZGPHW7flF+tLh4CmfaBQ5jUyi7cAfApeEtavNmAPc4avtXwRi9ooBSNhhg2ukkbFJqkXaBU6Mxdq3z60GvUXK/lMLOusbdWlRrRNEeCVvMgoixLwoc/7NtuvlvYvH1uqLenJcbe6axpqY5kwxD4mYn1mzPXXDXkl62mnscZ+wMyZRh5FuTSa/Av+fCLCyvsPhZECvfx7BvEYhJusJG7n08iOI+gRhPRg9CQky1xbzCtYtOarjvxJaMnitNznMCrpPxc0s37YuFW66D3ByMCgiCj6Z0lGhisR4OXR1f8ubbmbR7Q+LmB5a46zT8Zd6QsbZReJ7NxKEACp4JSMXzt4I69ICABHX1ByA/eAakGfOgv510gc7DSmEPUPY9Dezu/fFmelU9MYoDzZCIXlhq7vhbfdWMoJxLejJ16iT1BPr37x/+Kr/fDOHw2yAUHoqvtf9JqjiPKQL+HgoZl0cXv7olUwQOfWJ+z3ourXomr6V4zymm5BcCU/YFRVLcberffd96UFq2gXzzAYDGTb6N4T87ZrnFoE6qBHv3PVDX0GvqqVES4h1NVa+1fz3g/Uz5oPeUH3X2gwTKxhyU28Ct02zbPovl5owIxA9m29miMHldd9b4l61Ll0YzwYT0qflfVmw/hrpobi9zQEUlZho+SepsNNZM1DPB2DSH7ybQfhz14VwQdcHIQszc4pd7HgNiCFb5VlQym9cEuGwFDn/N27z06rbbf7zN6+6pv8wnkDdm7x6xhIKFlMWVLCfSC3/A+PtdLLGkbCKxMBQOXX/kkJK3MiElgr9AA7aGXa/2W7uf3FcI+StLwimgsjKKhgqYkZI+HEzWt+4TEO/9GSSKHL8vhhW+tVEzwBl7OAhM2EeXDwS+Tu63WZXs3OELr3ypdu7cjE5T7wNh6hJ/ROcN2bd7jDk3yJzI8Rh563+IuONENSGf1IWoin7+btofT5G4+eY1639qVXjrHsePsUC7EF1JD5NUwTsrPoDUVvxh/vbDGB21LgDzRT+boZNBurlswvkBGE82D4FJZvGXdDt6hXXFuNpsJkFzTxEBFDjGkEkjuKpdJcKho1HguBFUfn4nS4ib60K68puSHaue3LRpUwCcD7vO3k+QXR91kp9sz18z49T9Lc7PdSSbAYz8a5KMOJDNMcf6Olnfsjf9rx3lZh8u7Q8CHYhFgVuKhi7fCXDZiKnOZsMLT94B1VXByOboOxQaQDIJVFRU6EtiuZO5Y98IkZxJeFrgr4OxAEuJxd5WDOMKu7b602TO1eu2sl7clP6uNq/N1g/mqnoD7j0PQQOQf43Xq9Cn/rQtK0G8+SBGR/nvP8cKy0DZ5wRwyoaSA7FP6+F/um0/nhK1uuRnHL1wSc3cuTMxipcuIpBcAv37Tw9vCjvH2Db/NRTkTvB59wYAk/upEh4pcuxrt6+Y35rc2XrXWlaLm5J7PyhoVcqOcbg4B4+hKgLhte6d7bO6J5ZoBWX+4yDWLfGdA9MMUCcfB87gvQHzKPk+HhrAfxAQ0lJsuDsizLuil5VvITZEIBUECsoPLmmzo8fLkDoLE/x191vgoHPxCk3RLxgbbnmrpqbGTsWcU91mVoqb9ozD99X1jqtKZdyW52I1736UmC/VSy047TPBQVtRDXzx8yCx6IuvFzoQKyNnYGkFrPJNDsS+muJ7O7fkSp3Bb45e+PETtHsTTBOl+6jc76SCYRO6xdRIlVC1E7AGVZGvc3JFfSLxN01RqxKfv1OXjikRslLcuEdRrUrk15YtzxRuNW9cWL4uJOrcUwJuThv21oMgGjZ62u93dabuNhTE9J+DiPgfLOE7jKAOAAszMEe+lNuy9ay2qn0oNDyodkr3ceH3UGSPAyYloolrIKwfCCpWy/XrckszxM0Nuq7eUtZkPbphw0L/Q0k7ySKrvtRddVz0wKoBNtdOjQk4DxPz+auOO2ksun3XCTBug/LR30F8Xo2NyV1vcBdaUIp2A+k6EHfHjUO6gk1AQKPO2HVDH7p8Tm0thYYH21jpOzq3BlUd6z7NNK2bWF6Om8FT8202DByMnvoobOgXXn7MvmlXOTxrxI0rbPJ++1EZ5HS7PCrkTEya1Mu3RUMd+0ZA3bIC5LuPgWzb4dsY2jvWw6C4ifqGYokZStTnry061DsT6Fz8emjFe+ebD522qkOP0E1EoAsEisZNL2qJWafjqcLFLIIJ/vy8HKeJOfzObkrDXfW1tWlVjiQrxE37js39K/o7un5+1IIzMJMAJRHx84XxqW9mxUB97zHg7U7EPu7aYKVvbeR04BOOBaH498PMJzOkb7cC605JeXt508e31VbNpMR+6WvJYI/cPZ4aMqm3pelXiJB+OmYp96/0z9eZi1diOZKzr6mc8Q4mug1GReEOWDDjxU27sLn1/SIzv8+lFvBfCMlcT3S6spCAuh4zEb/zJwx19NeJWO0xAOTUU4AX7paFVkjjKUvcvTHFQkxydobZ9OdVkEYf9GlMPTuHjtnytSdensg1/V4Ih8ZhfUP/fgUJaaqW+WBItW+JLlu0NV0MktHixhU2JXPW9I06ymkWFxfhjk1BuhiGxplcAmqiGQBz2oita5LbcCdbYzmFWOn7FHB6jcQnM/r16ySZNLmdyzZFiLtzRcs9rZdM2J4mo6ZhpiEBN//NxjxZ6Vj2VZCbiwmwpH95IixzTVhh15Z1U55dW12dSAecGf3pWnzmQ4XmuAPPizvy5xgPRV6b6bAiUzFGKUBd8R7Ixc9i/Sgf30vMQqyNPhCc8UeCxBBwutKQgJvYLyE+0IRzqX3psAXpGCKbhtSzcsjtRZz3OriP3Rq7BJPMngqG7t+Pc8HjSjwxV2e8KrHiwy/TwSAZK24KHq4tkTxyVpsJl0pGUVHpsBhTNUYl1gjs1btANPm4o+qWV+g9AviUU0DmUJBeqmztSbsCYrqUj5fN/+evN8y9KO1CZD1hRJ0khYBbzPk3f60eaXNrNuSED8TjKX9+Fbmh4bH4JgwNr+pnbn68rq7O37P9DtDNSHHT584FkQaj7PgEsKuFlAM7wIFuyVACTHJQl2PCvkV/w11d/3zhWCgXlBlngLMbHkeh0KErnQng7g0XK42mTTOtWVM/Q3v66J2ezhxp7B0h0Gfy5MjmJvUnHJQbWNjo35FnUnKPxA/TeOIfIWldllj5kb/n+x2YYMZ9ypZWVuW17XfSwfGEvB40ZYSv55QdMADdkloCauNGkG/PAdnkY+Z8DPXWxx4M9rgjqLxCas3tYessoTjyrsIFc2Y3zp2NDl10EYHUESgcPaU46rDruKK4x1P+bf2a1lYmxQ0jlMaHa2trAx0xmFHiprLyGfWlaWMPtqR2lSNhIvpr+udhnrp1Ti13lADu1GhLXgax9FWQjn/lUZSyQQBTTwVe0KOjI6f7gk7A3a1xxCe6bZ5tXzLyQ9q9CbrB0nt87f43o/efnLATN0EkPMW34ykADgnzVcPmFyRWzV8TZJ+zjBE3rrB5+aAJ5bYlH7Akm4j5KNT0Xs40+l0loLiJ+l66DWS0aVeb6vLzzIiA6h5H9RqFuzYZ87p1mUdGPehGTnH4feG2j3/TOHsm7d5klHGDN5levSpy6gvDxzuOvBLycvAXkz+XTJg7dCFvKM2LP7yppibmzyh23mtGfNq6Tle3l/5smCnVy2xgP0VhE9751OmOTCbAhAPKsjdALP6Hf9PECt/qoD3RifgkDOL0xw/Qv8lnQc9u3hubL9F17eyrGx77MJ0SnGWBdTJuiu27N6Om9jUtfpUMGSeBruf4Mkn0vVGi8dfCublXX3r0PkuDuu7TXty0V/j+06Y+8UTiyrjDjgeKjPJlvQetU7VxA8A7f/S1OKZS0htg2mnAi/sGDQ+NJ1kEuGxVBLu90Gq8p/GKCbR7kyyu1M53EqisrFSf+2zLFEeI2Swnsie6XviT+8a0Nuuqck8xM+7fuvT1aBDNlfbipujC54rsoWNOj9nyIqkqvajCdxCXmcdjcn1tlr4C/JOXAAT3uPNvusM8NtqeR4MzfAbVjvLHAt70irs3WHvnQ61ty7n2dVNrvOmUeslmAsUDKwqbQ7nnCQUuYoZR7AsLKWyIW28aDj/PXL2wzpcx7KTTtBY306uqtI96nlKZsMWNnLGBJGyCuMS8H5MaRV+bl+8A0epfcUy111AQ+/0KhOHPzrH31LO4RynboK35RrBeuJ1KMmTxOvBo6u5pRWj0tOG2Zd+BzsUHYu0pXwJnpJnYpmvG1fuUiEerq6sdj6bf4W7SVtxMnz5d++hHs8sTed1/xyWbTCHfHbZ5Zt/o7tosf+ubvDb+pB9h4TxQ9z4e7P4TMps1ze5rAl9HTi2MJJqOj18xYT1hIQKpJtBemiFsnewAuxIiETf7vvff5VLaYFkvhTX1vPjSavQDCNblPZAkzN9VrgV3LhmSMPKutpkykxyIkwA1Q5pQW7cBe+cR4NvW+jMjNxPx0L1B7FUJQvevmK8/k8/iXgU0YTjcefD5G3+FOb/0L+9AFpsg26YeGjR5sCP45SI3/DPQ/dkilra9QXX4ZVN7anODtnuTluKm4M7aEiccvgBrRp2N4bVU5Tvb3uofmK/2xdvAP3wWwPEnv1R7YcyDzgGnhEqZZdWyxL0bsMUz4Yb1VyVu3n9dVs2dJusLgcGDDwl9Bc3TLOHcAQX55biD6P33OZem4pj/DIUiF0Y/fn1zkPLeeA9jF5dBeWWVsW7/U46JOeImAWwQ+dnsItAMelyxE6C8djfu2vhV1w2zRo45CJyKoykTcQatqw5NxT2assR6w2y+/CrzhblBDY/t0FzoprQhUNR/XFGTYlzBcnLOBV3L9WHgWHMqtj6kq+eMCsVer6mpCcyuZVqJG/c4Kv/Gt0cmSvrf70g5BQ3piyOVDwuIuuwAAe2rJcDfmoM5NP3xbVO79Qa57+kY+t2nA6OlWzKOgAAsyQCPFHz2z2uaHv21f5kjMw4sTej7CLjfifqIaZM58HvQ92Y83ud98lrbiisOfzjElFtiy9/bHBRrpY24cY2Yd/VTPZzeE680BZxDwiYoSygY42jftZn/Z+BrfIrGxR1hbc8fgzNyPwz9Js0djFXh/SiYJZaounreNQ1/nk+7N97zz8YeSwYPLmhiPc6XIe0i9L3xJzQ8Gv80FNIvveLY6W8FZd2njbgpu+S13NaBQ0+IO/wa9LOhrGjZ+Bb/wJzVzV+AfO9RkG2NvpBRispAHnoJiHCBL/1TpwEhIKFFkXCnePqK22Dh3HhARkXDyGACbmK/F1fuqEgkzLshJ4whmsz7dOiO06wL8WD3cPSGoJRkSAtx45ZXuKPnqRNjlvMbzGdDx1EZ/KJ2dWr6B38BZ/l7mBFAdLWJrj/nJuybcCTY5Qd1vQ16MkMIYEkGLt6FzV+eArMPpLDwDLFq0KdRMnhiQZOqXCBV/RwIGWXej1c6iiOWaNI8zly2YLX3/f9vj2khbkruXdInoRZcH3Pk8aBIiq8NwsoJ0Bh0sxX4szeAjLf4MiqlbCDAvlhmIZ+qfvtigKB1KmWL2rDpl3zW1L9StfCgGSczx+NuANz89Lzxju3cCAV57q8sH3xvnFZNYefuUyL/EoSw8MCLm4ozH9JXjD/o9LiDWYgBSjNzadKsukqA4U6Numo+8PlP4q6NH0n7sLjL5OOAD9sXMFNoV6dBz2UUAdy9ccQfoXn5BVB1RGCrJmcUcpoMlEw8pKBpe+MpMmxUgWGUeI8ES5EkEn8JQ+yy2PIa3x2LAy1uXDX626Kfjkpo+gMcMAsxOhV7bzDqMcgElHgzMPS1ERs+92WYSiHu1hx1NXCNCtH7YoCgdmqJT7Cw4C/tpsdrqCRDUI2UWeNyvy9veXreYJOxR1nImORH3hsZT3yhauySa3+y/yt+OxYHWiwUVT1XFOs27jJLyvOx2rcfMfyZtfozcDbaxloQ7/4Jj6RaPZ8d0wxQxx8G9ugfed43dRhwAhKaNSFv7/H5E3dumlNFuzcBN1emDK+iokL/pCVyuQypF4OuF3k+L9tuVW3+QAG3b26oW+SPn8A3kw6suCmvesZY063iiISQN0iFjfTcSNRh4Am0H0kteAL4ygW+HEkp3TEL8Yyfk69N4FeKHwNknDny9VDz+rMTVTPW+jEC6jM7Cejle+/p2HA75ObsgwS8PSsXwpHxeE1ORP9V9NN3PvUzY3FgxU349o/7OeGi2x0Jh+E3FzkRZ+d7+oOzVtGRGJ67CUTMn3xp2oSjwMFdG8kUsg4R+DYBN2OxLb4MATv/yubHfd+iJ/NkD4H8vfbvFm+zzsfI4vPR98br3Rsp4+YOXVcv7Rff8FRdXZ3pF/lAipvB590b2lJ++JltFtyAx1FeG8cvW1C/nSDA0HlYXb0A+HtP+BL+reShv96hFwPPo9JmnTBbdt0qIaGCfLjwlXuubnjlPl+36LMLfHbPdvr06dqiHXLPRCxxH9acGuf57g0DR2lsecwoyJsVX/LWRr+sEThx015i4aH1IxzOH8Yjqcl+gaF+g02AmVFQFv4FxJrF3g8UsxHrI6eBPfGnICFwr5D3PKjH7ybg7t44cj5sqD0Zbj/Sr4JnZJ0sJFBQPrkkLrRbHU39GWg+1JxqaatRdf1i54v33vELf+A+mbtf9nx+y+6jrrYkOxd/kpMTsV8rI+D9atu/BPnmgyCi3h9JKQXdgWFeG6fH4IBTouH5TkBCPSrgC+H9K/4Kc+diNgu6iEDqCbRHTs19+zDTMm9keXljU9/jf/XAnSZm23ded9yBN/sVNRUoceMaZHbZyRNMSzwqVGU4hX57viTTpkO99nVwFv3dl/EqAypATDkZpE7h374YIJ06xb0bVcLDZbNnXrxpUw1FTaWT7dJ8rOFx0/tbMbNK5uaejFPx+rueg2m+3UNrPnrr0qVRP1B6PeEfnGPuH9aUWQl5pS3lWRijH/IDCPUZfAKqWyTztbvB2eb9Tj9zSy0cfC5YPYcHHxSN0H8C7tEUl0tg/adHwx3HrvN/QDSCr3CbAQAAIABJREFUbCHghoV/Go0czBX2GAuFPE/qJ017u6aoRzkjui3yY9cyMOKmPWFf6SkHxbm4TTAYnS0LkObZeQJawzoQL98F0vK+LqHafXeQP7oQuEEnpp23XJY+IWQ9xJpPhiv2eI3KMWTpGvBp2rkDJpZFNe05lhveC9eex2Hh0mKWeV03RftdfW11m9cIAiNuCq94stjqM+n3cQHH4AYa7dp4vRLSpD83t43y8T9BLH3V89w2TNVAm1QJ1rBpPuzypomBaJj/S0BgUUEBj+TPu+PK5pce8KdsPdklKwm4kVML6uW1FshfMcPwvnxRW/QFPS/nCuuTNz1PIR8IceNGSBX8dvHe8bySfziCdSNfm6x8Dzs0aQVz2rB3/whi04oO3Z/Mm5QiLLY74xfAi/sms1lqKwsIMEu+r29f+UvrlkM9/5DPArw0xR8gECqfcbCVSNwEBbkTvAYlo/HPDd24zlz21rNeJ/QLhLjJP/k33cyJx99mCXG61/Cpv/QioG5eDlCN4saHCuBa+QzgE44FgX43dBGBThFwYJ0q4OKpLzz+fHV1ldOpZ+lmIrALBHJH7V9mRtsu5fk554CqehsF4WClcMH/0DuqXr12bXViF6bR6Ud9FzftIWs9Tj3YFuJ+IeXATs+AHsgqAsbSl8Gu+afnR1KAWYj1Qy4gR+KsWm1JnKyQ+CEvf5+/5ZNbGmfPbE5iy9QUEfhBAv37Tw9vzWc/jlvWXSwngpV+vbykDdF4dYSxU2Mr5m/ysmffxU1B1aslZsng2SZTTsRvLG9VpZekqa9dJqByG+Cl34LY7n3QidajPzgHXQDSyNnleVAD2UiAcdURH6obPj3duuMnX2QjAZqzPwRct4/CkdMGt9j2gywvMhV/qHm69Sxbo+tyI7k/P3R48dtzPcz15Ku4qaysVF/Z77apUYc/gvV5BpCvjT+LP116VTFKSr56H8iEtxXA2x2Jxx4M9pjDQCreBhyki21onB0g4MBmLdZ6gnPV2GqKmuoAL7olaQTKxozJ3ZHIvZrrxrlg6PlJa7gDDcmE2aKFjJt7bFt+/6ZNmzzL9eSruCn81e+LE+U/uhIra12Ewoa+NTqwULL2FoyS0pe/Cc6HzwEIbxO9unWkGDoSO6V0apq16y8ZE5fgFhGcBe89fhfMrbKS0SS1QQQ6QsDdvdFH738ghu3djz/WhnTkmaTdwxhXHOd5o6Hh/PiGJZ7VmvJV3OQ/uHZywuT32ArsmTSQ1FBGElDcxH3zHwfuQy0pte9oENNOB0FHUhm5tjybFCb0Y0K8kPfsbWe0Vs/Z7lm/1BERcAmUT+8JEsVNyDjWcyBCfKExdrL96ZsfedW3b+LGdSS+vefJ18cdeSmXlNfGK4Onaz9a08ava0k1b/N2ClgkU9vnZ+AMnUpFMr0ln5G9MQGrtGWvnmD/4RzPPuQzEiRNqtME3Jw387fDOY7KbgFFjXS6gV15QIiodJxzYNk7f/bqSNY3cVN04Z+K2gbv+6YDbDz52uzKqsmOZ9U1i0DOfxKk7e7se3exUC4oR14OTj7muKGLCOwyAdaocvglv2DA37z6kN/lIVMDGUHAPZrKmXDgPvGE8zgL6X09dQVh4EibPwKt8kLwKCTcF3HjOhI/O+22w7mUT1OEVEa8NymfhLHwSbCXv5vyfv67A63fGHCm/QKkZnjeN3WYgQRcvxspb4dX77kRXrnPW6WegThpSp0jkDdoTI+Ymnu/NIzDQdc93b2RprkoEgnNjC1+4ysvEvr5Im7yqub3iBf3/A1X4IzOmYbuzkYCqnRAPncjyKYtnk6foaBRJxwF9oj9sKau4mnf1FmmEsCDKSmrI1/WnBy/a6ZnzpWZSpPm1TkC5eXlRl0s5zwrbFwK4Yin29EyGtuoqcapU8qgGq+UJ7L0RdyE7qn7kQXst1KBUZ0zDd2djQS07WtBvHYvSDPq6fSV/G7A9j8LnJLdPe2XOstwArbcGG756sRE1YzqDJ8pTS9gBNyjqfCIfQ60HHEr5OeN93R4Do+qln1jEdT/fvuKFSnP5+G5uKk48yF92ZgDbzaFPAsLZHoab++pIamzpBBwC2Vqq94HvvAZkG4SPw8vpddwgIPOBe5tzisPZ0hd+ULAka26wi64uvHxxzCwQvgyBuo0awmE9pg+2GlNXC/ycmfilrTmHQjGtWjsSS0/cm28Zt76VPfrqbhpd2i6fl7fePGAp0BRJqG/De31p9rCad4+czAEfOFTIOoWeV5ywZh4LJjlB6U5QRp+4AgIaYHD7ihdXfOb+t/PbAvc+GhAGU2gZPDEgiZNO1MwZRYLh/I8nKxUTHOBEYlcHK95HT/QU3t5Km4qKs7U635+xTHNlvg9KFj9my4isBMCSrQBlLceBF7vbcmF9iipg87BxH2DyEZEILkE3Hw3pnjBCIcuNs/pW5fcxqk1IvDDBCoqKvRlsbzppm0+wvLz+nrKy7a/1CW76qrK6c+ketfSU3FTNO7oIvmru+5otuUpnoaheWo96iyZBPQdXwJ/1fW38Sxrd/vwVawlJQ88D7inP2ySSY7aCjIBxsVyQ9cuMusfex3oaCrIpsq4sbWfoIya2hdzzD2BhTSn4AS90wGW1RwS8t4+dt7NdXWvpDRa0LtJIcG8m+ePsop7PmVxciTOuDcmRRPSVlS3+9t4W3IBE/eNPgCcimOollSK7Jr1zQq5XWfsOvu9K+aAh8UEs547AfiaQJ/JEchTb2Sh0Hl4iuJdngsL/QysxEsFZvQXzes/a0ylOTwVN8a9q4/HUgtzpAQvz/lSyY/aTiEB15nY+OAvYC1/L4W9/G/TzIiA4mYlHuBWBfH0FfF0ntSZjwQExBUh7xQLnriB6kz5aIds7RorBMDT845DcXM/ipsSzzBI4chY4tMw2MclVn60JpX9evbJ7UZJfTbuoMctIWdSRuJUmjRz2mZ2HJRX7gCx/StPJ8UKyzAE/JfAi3p72i91lkUEJDjAxT9g5YdnwgMnpPQXbBZRpal2goA+avoER2LWYCM0phOP7fKtmMxvk6aoJzifvf1OKrN0eyJu2s/4bn69j1U8pJoLSaWVd3l5ZEcDRusWcF68HWQ85SkRvgVU7VsOcj8UN2rIX9BukDDFE/prg1T1jk7FIMTyUN2io817T1iVqm6oXSLwfQQiQ8f2TqgF94OhHY61prwLCRc8zphyiRhS8lAqj2Q9ETfllZXGqumzj7S4fBh3+QtpuRGBjhBQv/wQxHtPADgp9Tv7n6HoFUeCNfawjgyR7iECXScgoDm06v3jzftPeaXrjdCTRKBrBEpLy/N2lJVeIYS4ACuFe+cqIplgpvlgaUPTZVu3Lk1ZZlZPxE3+mQ91T4zef5YN7Cw0g3cKsWs278BTEu/xBF0HxpKZtyiSg77sNbBrXgQpuHeTVFTQDj4X7N1Getcn9ZSdBCRYkVXzL4/fd/Ld2QmAZu0nAbdK+IJ6dpRlW/ex3Mhuno1FomOKmXg1Yhi/iC95K2UlSDz5hs69b+loC3IfsBnbm/xtPFtCad0Rs2LA3n8c5NpPcB6umPTm0op7gjgQsxLnlXrTIfWS1QRUx/odv3D4ean0PchqwDT57yXguovkjT5gdNSMPcZyc8fg73XvDsEdvkRa1s9hxfzFqTJRysWNCzB074ojbabfKxlQkZ5UWTLD2lVjTaBWPwT2lpQ61P8PNaXPSBDTsQq4kZNhRGk6ASXwd/jLFSfBwrnxgI6PhpXBBCJjJ/e2TPVBYegHg6rqnk1VyM2KFOc5S956NlUVwlMubvqf+qdw/YRpN0U51pJSINczeNRRWhNQGrD0yCt3YvI+Dz/zsfK3scehYI05DCRVAU/r9ZM2g5fwES7yE+CCkeRUnDZGy5yBuqUY2phyrR02zgBNL/ZsZkJEVSlvHsa33VFbW2ulot+Ui5u80+4tFRMOfz4mYCLVkkqFCTOzzfDmWjBfudfTyTHNALb3z4APnuxpv9RZ9hLAD+ANqqL8wjm7/2t0NJW968CvmZeXlxsrrdzTbMW4muWEvSvF4AhLYfKxwljskoa6RS2pmH/qxc35fx7FR0x5E1M990jFBKjNzCSgfvICiE9e9HRySl5Jez0pu6iPp/1SZ1lMQEIr1tq52m788++oDEMWrwO/po7J/LSn3zqAc+s2yMsb690wmADLfCeciJ8SX/1RShKZpVTctOe3eejLY7HcwuOY3ybsHTjqKZ0JqCBAee9RcFalvHDstzAppf1B7H82yBzKVpDO6yetxo6ZijH3/T3Wc2dcC9XVTlqNnQab/gRcp+Jx+42Mt8buFoX5B3g6oVhsWU5u5IS2mnmfpcLvJqXipry80qg7+9ZbTcEuoCMpT5dNWnemWlFQ33wA7M3euiEYw/YGZ+8TgTM1rfnR4NOJgLRVweb2bXz3jLVVpyXSaeQ01swgkL/X/t1ijW03i7yCX3j6PR2LrTN0/RdHjujx1twU1FdLqbhx89vERu//CGfKERQCnhkvghezYK3bAF69B6B1uxfd/X8fyh5HAh9Hyfs8hZ7tnTHGwZZvwvKamTBnZnO246D5e0+gf//p4bU5/NdM1a4DTfXshEXG4ttUxn7N1ca/QQqcilMqbnLu/HiCEyr6G9aT6ue9yajHdCUQ2V4H1usPgEi0eTqFyBEXQax0mKd9UmdZTsAtw2DzJeGtK45N3Hq4t3kPshw9Tf8bApWVqrp8x5Ec5KNMVwu84iJtp01x7FtKJNy3fcX8pNfYSa24+W3NEXZu8ZM2l/leAaN+0p+AWrcQ5IK/gHRSEiH43YDcSKkjrwJR5F2izvS3FM0gKQRsuU5T2YnXND6+oKqqyq0oRhcR8I4A+t3AuGnjQCgvMU3z7gMQM3RrifgfDC18Y3TZm1uTPeGUiZvKZ55R/76t4jIhYBZmPvS5AmGysVF7qSLAMBuxuuRl4B9jpJT07nM+VNYf7P3OBh4hZ+JU2Zba/R4CDjTmqspFu71y51N1r9znbSE1MgoRcAkMGtMDIsUvMV2vwL+lTBf8F2yuxxPPh3O0y1s+rq5LtiFSNomSE+4taJ506Bz0t/kJ+tuQh2ayLZeh7SnCBmPx38GsrUZx413ZBaXfWBBTT6XMxBm6rgI9LQ7xsMJuKnxx1j1bX388ZYUEA82ABucrATeZX3M48oTQtMM8K8Mgca8okXhPCWsX2p9Wf5psACkTNwWXPjmktc+kZ6QC45I9aGovcwkwsw3YO38EuaHWu0lisUy1fAbwPY4G6WEGcu8mSD0FmgA6Fau2+H3+8zdd11T9aFOgx0qDy0gC/adPD2/YJmdzTT0LVAWzE3hwYa4YieHgmgLnOV8sfCfZPaZE3Lj5bQoeXL93m+U8ieKGnImTbbUMbk+NNwHDMHC+ba1ns2QoaIxJx4I1bDpm2EnJK+HZXKij9CSgJsQTOS9d9+vW6qe8DRFMT1w06iQTcCuEv7tNXCh19WpQ1KIkN/99zUkZN9eqUlzIV8z/Z7L7TMkneSV6Xz8/Y/aPLQfmAJNegUo2G2rPBwJG61Zg834HVmPS/cu+fzY6Rj9OORnkAPe4mS4i4D0BFDcvhGqePSv29OWbvO+desx6ApipWJ1bPZNz+1YWiXi1IYGRgna9JuHaqytnPJxsZ/qUiJvBhxwSWnPo784UDG5DvwnP4uazfoFmAABlWx2KG2/DwBXMSKweeDZY3fpnAEGaQjoSYJZ4x9BDZ5jn7746HcdPY05zAnjaEhq130GWlbgT8nJHejYbx2lTgd02pZu8pTrJGbpTIm4K7qwtiSmRWY4qz0ZImmegqKO0J6B8tRTkvN9760xcUArqEZeBFfIsxUPa24kmkGQCDiwBEKfDr4d8nOSWqTkisHMCKG6M4fuOth3rHijIn77zB5J0hxS2IsQjw3n9BcmuDp4ScVN410cDE2rJ3SZjmO4VvW7oIgIdJJCzdhHE3/pjB+9O0m3dsBjuIRdjpFQkSQ1SM0QACbjBfh39hJWyDiQ7Cy4Y9CaxIwJ+EIgMnLJ7gsfvhpLiYzzrH53pUdw817eJn7R2bXVSy4909NXr1Fx73LVocjRU+mBUwGgqu9ApdFl/c2TZy5D48HlPOegDxoO97xkUKeUpdersWwQk1IMiz4dzBv0V3KzFdBEBjwnkD53ePRprmS17lKADoocnLhLel/GvDoUVK5KapTgl4qb4jkWHxyOlcxJcepft0OOFQN2lhoDy/mMgVy5ITePf02pkzAGQmPATipTylDp19i0CDNoUqVwjzu1/L4kbWht+EOjefVh+Q37RLJmbcx7oqjfh4O5Epfw8L7Fx39YvvtiRzHmnRNzkzv7whERetwe4ACq7kExrZXhb7Yvx9fsANizzdKYMC2YKKpjpKXPq7H8ImBpjv71m+59nJTtqhFgTgQ4R6NMnAjn9LwCdXcuMUE6HnknCTdJy1oWFNS2xfMG6JDT3/00kXdy4OW7yH1h1bkKqdzgC9GQOltrKbAIGcIDX7gF74wrvJooJ/Njk40AMm+Zdn9QTEfhvAhIcnbEHjy5bfOHcmTPxRaCLCHhLoKKiQl+ayDnFduRvWU7YuxQutrNZi+iH2h+9kdQsxUkXN//H3nnASVFkDfxVh4mbCQtLWpICi6QlCAguJgTFDIZTVPTM4BlRPGU5s4KYzoABTz1P4eRO7zwVQRdBMbAqSJawIHmBZXcndndVfa9XvU89hA093T0z1d/vPhW66736V/XMm1cv4K8O6aH8i+/CTuBTDSaOju3dnsktzWtEgKPnRt9lX3NkCRtmek64EqIFPZMbntA+uQlgYKUH+BtD9m69uKx0hJHckxHaJyMBsz7dv9ftPSMajz1JAsFWts2BGpVe1XturPz9j6yUablxU1JaqixuPv4RyvlEKxUVY6U+ATmMxVk/+DOw/fbVMZMwQ8p76o0QyWmf+oDFDF1MgDAvgQ96rvhgTPmsK3UXKypUS1ECdY6Jtz4eGYnqfyZ+byFO03L74GDouE73yYp8Gf1mgaWZJJYr32Xi496NR576VzyeOjtF94CYVqII7N+GBfywxk3I0riyQ2uLR8tkzGRgWfb9UEkUPjFuEhPADCkP4eVdK8uHriodpyXxTITqSUrADCnx9ztpeEyLPUU8vm62lXFh7IBEyHX06wWvWRlMb7lxk3/Rw8H9R581X2cwJEnXWKjtFIE9G7Gv1DMA0Rr7NAjmAR99E0Bmc/tkCkmCwEEIeCXY0G7tup4bnhgdF4AEAbsJmMZNoM/xA6Jx7Sni8/ZBQ0O2SYcabhi3wtklz0FpKbNKpuXGTc4lpTnVxeOXcuBo+YlLEKg/Ac/udWB8+BzwqKXlDg6pgNysLdATrwMeyK2/ouJOQSABBLwS2d26clFhRemllhYzS4CqYsgUJeDpPqSnRgGPpXxDQJLs6S7AIcw1rRT84cegvNyyI1nLjZvg2NJW4WEXfoFWH5Z9FZcgUH8C/l2rQfvwBWCxUP0fauKdvnbdQBv+e6DejCaOJB4XBJpGQJGgtm3lxy2FcdM0juLpxhPwdurTNa74H0Pj5gTsDm5TtjOPYtzNQ20z4w9uW7o02njtf/mk5caN5+w7i7QRl3yIFQ5bWqWkGCcdCHDwf/81aB+/DCxu2f4+LDhfp76gDb0YqCpaLxwWlrghoQSwzk201cZlzbbNHGffC5DQGYnBk42Ar3vfDnEWmAFe7xiQJZsK+XEDa908DoZRCus+scxtb7lxEzz/rhOjx1z8JhMF/JJtXzusLxo3FV+AtuQ1YJp9XnlvlwGgD7kQqCKa1zu8AdJevCKRWM6Wj1rufegyyz7g0x6qANAgAv4jerfRwP8A8/rHgWJTlWICBqH0xUym31b97ZKqBil8iJstN26aX3jX+VVHX/ICpoKLn8JWrVI6jMMZyGvKgH85Dzi17Nj1sORIl6OBDfkd9q636UfKYTWy/gazc61lUXrWqydG/JGAjMaN/9slHULPjN8joAgCThDI6NK3RRT89zK/dzwaN16bdKBo3LwRAPWG0Ir5lu19y42b1pOeumLPESMfpxzsAmMTfyEmoQTQuIFv5wP56m38JraxQGvXIcAHn5/Sxk1C100MbhkBQkiMf7OwBzz/+82WDSoGEgQaQCC7/VG5YTlQSoP+K0C1y51NmMTZPK+sTYqUL97ZAHUPeavlxk3nV7dM3FJjTDcopO5PYavoi3H+n4ATxg1Bn0aPEuD9zwKwK3ZOrLkg8JsESBS+/aAfzLpyrYAkCDhBoPmRQzNrdP2Putk8U1HsOX3hwCRmvONh7Nroyo+/t2re1hs3L2+5taLGuBc9N/akkVlFQozjLAEM0oLyfwBB741tl2ncFB0PvPh0YdzYBl0I+m3bBmKg6cPgxm7LBCVBwAkCBQXFgT0qmUKzgjeCYlOWBRo3sq7PV1Rydeybsgqr5m25cdPupYo/7gizUsq4XQWArGIhxnGSQJ1xMw+Nmw/s00IYN/axFpIOS0AioDEgJ8K1HRdbWan1sILFDYLAjwTath3s3yXpk2l28BY0buzpDI7VA2WDzlckdnVsxceWHclab9zMrrhzR4RNFcaNeF8aRMAB44bICkh9RoFx1MkANtWrahATcXNaEVBkohkGPwUmdloojJu0WnrXTLaoqMizrtZzA83KvhNjboK2KCaMG1swCyFOEXDAuDE7gnuPPguiXY8FbnpxxCUIOEigzrhhcCp6bhYI48bBhUhj0cXFxeryXWwSzc2aBqoqjJuf74V2wnOTxq9GE6YujJsmwBOPpgIBYdykwiom9xxKSkqUT77bN9HIzbtbGDe/WsuC2Vum7o7QO8WxVHJvctu1F8aN7ciFQHcREMaNu9YjHbWpM27WoXHTzF7jRjKMBQroV8dXfrrRKu6Wx9wUvLjlrt1RepcwbqxaojQZRxg3abLQYpq/RUDE3Ii94TSB/xo3eWjceOw7lgLdWOAhLjdu2uCx1C4RUOz0Hk0++cK4Sb41ExpbSkAYN5biFIM1goAzxg2mghvGByJbqhELJh5JAgIOGTeeQWdC7Ags5CcCipNgk6S2ij8cS/HRcG2nD0VAcWqvtVtn59SxVFKkgrd5seKPu6Kizo1bN69r9XLAuAFJBqnXSKB9ThGp4K7dGOmjWJ1xQ9kouK7zR8K4SZ91d9NM61LBq+TraV7uVPsCirFCMRbxU91exK/17Iope8J0mqhQ7KYtmwS6OGHciCJ+SbAx0kfFH42b42Bil0/SZ9Zipm4iUFhY4ttmHLiN5mTfgsaNTUX86oyb91VKromtdXGF4g4vb71pW61+P2WgumnRhC4uJ2AaN1+9hRWK3wfg3B5lhXFjD2chpV4EsEJxnFUs7w/Tz1pZrwfETYKAxQTq2i/IfArNzrwRjRv7ektp2nsqk651tXHT8S8V122tpTPQcyMaZ1q88VJ6OEcaZ2KyYHeMtxlwtugtldKbKzkmh7sxzlcv6gFPT9iUHBoLLVONQF6XQVk1Ov0j9pa6zs7eUkD1t3yETIquKNtmFVPLU8G7/GXrhIqQ8WcMjPNZpaQYJw0IOGHcmFi7DgY++AIArFYsLkHASQIEPTf8mw+7wPO/t+wD3sn5CNnJRyCrbVFeWPZPY5kZl2P7BXu+w7FxJmHGHJ9Ob4ysWbzTKmqWGzdtX6g4c2eUvUI5t6d0s1UkxDjOEkDjRln/MbDP3wRuaLbpInU5GtiQC4ArXttkCkGCwMEIyBKJBTd82KZm5uX7BSFBwAkCwY6D8jWZ3Gv4/ReCItv1oUiJpr0a8PBbQl8vrrRq3pYbN5nX/HlIqMfJ/8GwiWyrlBTjuIGA2XsJ42ISdnHwb1kG2uK/AtOiCZPy64F9XfqDNuQioDb9SLFtYkJQAwiYMV6WfxQ2QP4PtyqERJtVLGmxe/r4cIMfFg8IAhYQ8Hce0E4j8gPM7z8HjRub3NncIDqblUn0P1Z/u6TKgmnUDWH5G+07r7Qwdsz4pRgU2soqJcU46UAAjZtt34C26GVg8YhtE/Z17A3aMZcAtSkxwLaJCUFJR0AmJNx647IW22aOs8+6TzpKQuFEEvAdMaBTnEkzIBA4BWTZpqQgrnPNeBQM425Y90mtVfOz3LiB8fc1gwHnlqOCHaxSUoyTHgT8u1aD9uELwGIh2ybsa3skaMf+Hqg30zaZQpAgcDACEpAD7fctal1RemlMEBIEnCDgOaK4m8bVx0nAPwLrgCn26MCjXNPuhyxjOixdaplhb7lx03zCg5nVxecs1RkU2QNGSEkVAsru9cA+nAU8apnxflg0JKc1sJGTAIJ5h71X3CAIJJKAVyY7261Z23HDE6PjiZQjxhYEfouAWjSkj07JU8TnG4iFJGVbSHEe4vHYnRCI/RnKy3WrZFpu3BRcURqo7DP+PZ3yYVYpKcZJEwJ7NgH58BmASLV9Ew5kAx99C0BWC/tkCkmCwEEIeCWyvt3atb2EcSO2hxMEOOckUHzioGgs9gxRvUeBZFNPGs5reFy7Cc49/kUoLbUssNNy46bLxMe9Fd1OfRVTwc9xYoGEzCQmULUdyIKnAGr32jYJ4vGDNGYyGNmtbZMpBAkC/0OAEO6T4fPOu5cdu6p0nH3pgmIpBIEfCZSWlkoPv7XkuLBmPE08Smf8Y8vtg4PB5oZeJRP5Wrp84etWth2xXPniK55VV/Q54XGDwlU21ZkVmzNFCKhRDJSf/yQY++wr8yF5fOA95QaI5BamCEUxjeQkQJhX4e/1/HrBGeWzrrTMNZ+cLITWThAYO3as/M7G6tGRaOxp4vO0sUsHNG4qZVWZQL9a+G8rZVpu3IwdO0d+97iBU+OM3aEzbuYPi0sQqBcBL40Bn/846Ds31ut+K24iigrqiMsh3q6PFcOJMQSBxhEghHoI/G1I5ZZLy0pHGI0bRDwlCDSegGnc/Hv9/nOisfiTJOBr3viRGvikpu+Uvb5zja/eX9zAJw95u+XGjXlul/3Mxmt8kLlFAAAgAElEQVSjnMzQqWjBYOVipfpYKlCA9x8HY/ta+6ZqHisfPQ549xH2yRSSBIH/JaB7CXnmtEXLbpg7dxy+COISBOwlUFxcrK7Qsi/RDX068XmzbJOuad+rsQOjtY0rLO2pZrlxYwLJevCL30Uymj1jMMiwDZAQlBIEyII/A2xdYetcpD6nAOt3GohjVFuxC2E/I2D2lfISeDC295VpVgZVCsiCQH0JFBYW+ir8ba8HWZpKVAxGtOnisfj6QGjPiMj363ZYKTIhxk3u9C9HxYLNn4sazLZzOyuhiLGcIyB/ihWK135sqwL+o0ZArP84bHAiTlFtBS+E/ZcA9pUKeUC6I35t4RNWBlUKxIJAfQk0b35k5v6s7FKenTkRY4ltKuAH2G7HWAa1B06Eim8O1FfX+tyXEOMmZ8aXfWP+Zs/GGPTHSsUJkVGfyYl7ko9AcO0CiHw611bFlfZHgVFyBfaXsqnauK2zE8KShEClDNJEel3hHGHcJMmKpZiaGV36tojo8gyel/s7NDls+qVHGAYUvw9k/1hYscLStiMJMTzyHvysbdjfcmacwFn2QUqxnZam0/Ft+RLiC5+3d/a5BQCn3ALcE7BXrpAmCPw/gc0A0gSY2LFMQBEEnCDg7TmksxY1noSsrJNtk88otl5gfwF9+3WwYYOlxSsTYtzkzPw6J6pmT4tzfg1CsqmEs23LIQQlkADZhjFlZq0bZl9MpZTZHJQxN0Pcl5vAmYmhBYFDElgOnFwMkzotF5wEAdsJ4AmLv+fwATGdPgHBwEDb5BtGjFP2KLSU7oSyMkuzBBNi3LQdPNa/76IHro4xci9mT/lsAyUEJT0Bee/mukJ+NFJj21wkfyZIJ1wFeosutskUggSBnxMgBv/E61XHx67psEmQEQRsJ4DGjbfvcaO1ODaw9Hnt+yDUjVrC2LSzi/IfnTt3rqW/aBNi3JSUlCjLzpt9dljnT3Pg4uew7Ts1eQV6QpV1xo2239LA+UMDUbxAhv4OWOdByQtOaJ7UBGSdv+dd+e5lkRcn2rjxkxqZUN5KAlidWJ676EIm8QdBUVpZOfQhxuKgGbsVYLdpKxe9TLBKt5VyE2Lc1NW6eWpT/1qD/41LxCzjLC5BoF4EpCj2lVr4NPA9GIJg00Ww+a13wOkQ736CyJiyibkQ80sCss5e8/9jyh9Ci+dWCjaCgO0EsMaNFAtO5qoyBYhkVxo4xzTwjTLVJ9H1n71r9ZwTYtyYSvpvmNMm2qHfXJDJYKuVFuOlLgGiRUBa8hdgFWbogaWG/G9DwxRwqftwYP3PFhlTqbu13DszrE6sUP5k5r9um1q1YK6NXWPdi0RoZi+BLl26eDd7CqYzVbkKJMmeOFn0gvDa8FeKAtcb6z77xOoZJ8y4aTv2Ef/u4Wc8rRO4ENPB7WmdbjUdMZ7tBCSOZa2/+gfEVyxA28Ym4wZnqbQrAuPYyzBjKmj7nIXANCdAIRpUpdLs9+5/cse/ZkXSnIaYvhMEugzKAo/6KvH4RmO7THu+rzkwKRz5QPZ7btZWlFlandhEmDDjprSUS/e1rLhFp2wafkV5nVgvITP5CJgbknz7HvBlb6Fxw2ybgJpXAMaJk4AFRYiYbdCFoB8IUDgQ9JCJhR9NnrNq7lzREVzsC/sJHDm0AFTlPaKqPRNpF/xiYhyoEo68Hgx6/njgm7IKqyedMOPGVDRz+tdnxP3ZszXGc6xWXIyXugSUimXAFr8MXLe07MGhgWHcjXT6FKA5oqh26u4sl86M8u/9KrlgcuUrn5aWltpn0bsUh1DLZgIYTAzzFg1AqW8TWW5pm3QMJ5ZjsSf8QeWB2vKyvVbLTahxkz1zeb+YJ+ONOAP7UsusJiTGs52Ad38FGO8/CSxaa6ts/8nXQqSgl60yhTBBAAz41rdvw+mxe0baF0UvsAsCPxHA7GbYz8cCJbOIR7GtHyTHNHCJ83uaAXmqclVZyOoFSahxkzfx1awDRwx+hhFynmjDYPXSpe54JLQPyPuPAa/ebeskpd6jgBWfYVcYs61zE8LcSoAwwvmHzbaVnbX3ocvstebdikToZSuBguLiwK54xh3co96KH372BBPjDHkstluWlev7eGvnlZeX61ZPOqHGjVnv5rNxL06LUbhNtGGweulSdzzFiIH04TOgb1tj6yQ9XQaAcczFQCXbesbZOj8hzIUEOBgeAnPar183YcMTo208h3UhC6GSIwQy+o5qEQ1Vz2QZAewpZeMVjm7yetTLxnRvsdjqAn7mLBJq3Jj1blo+t3VslU5fMhi3K3fextURohJBgODPB2nJK8DWW54deEh1SR7G25x4LQYVN0vEtMSYgsD/EmAkiiXcp8eWTJ4GFldoFbgFgcMRML+jM4pHHRUL1TzBgoHhh7vfwr/nUB36MtPLL6xZ8/l3Fo7736ESatyYUlq+sKl3WCPvhQ1mV9XDRHASY9pMwLPqA9A//7utUqVgDsgnXA1as0Jb5QphaUyAkwOYd3sr3f/yCyCCidN4Izgz9bFjx8pvbzhwihaLPYBtF7rbpgXBSLNQ5J1gdeiK0O4VexIhN+HGTdZlj+TR/me+GtbZiegnsu08LxGwxJj2EfDsWQ/6O4/YWusGzIypQeOAdjvWvokKSWlOgGxWOFxsTOy4BCwuP5/mYMX060GgsKTEt3MvuzbOyc3Eo9rngDD0KAYUP9Y2xP60bdvSaD1UbfAtCTduiq94Vl3T66TbI5TeDBLJbLCG4oG0JCBVbceg4keB2dhAE79cQD3qBND7YVCxTUU603JxxaR/5jonn3GJjYNru3wvsAgCdhPIw+J9tYrnXsOjXAqybF8FU8M4QAw6ZXi+/FyZxd3Af2KYcOPGFBR44rvTYkR+nHHewe7FE/KSk4AcrQF50XOg71hv6wSk1kcAP+4qYF773nNbJyiEuYqAghVGCv/96AUb3n1CBBO7amXSQxl/l0Fto5Q/RzKDJ6BxY9/JCmVbZWBXGss/ej9RHktbjJvcR7/tFfMEn4wyOEakhKfHS9PUWRI9CtJnrwPb8LmtR1NyZh7wkyYBzW7d1CmI5wWBwxII7FzzbOTeU65O1Af8YRUQN6QtATOYONh9WL+Ipr1EsrJ6YNiIZBMMbLzAv1YMNkFf9ZHZRDAhly3GTfbVT+VqPUfeFuVwAybCiDzbhCxlag0qYesFdfVC0Jf9Ezg17JuceTR1wlWgtetjn0whKT0JYMPMnI1Lbjkwc/zM9AQgZu0kgWLsBL5Cz7xAjxvTScDX3DZd0KoCTXs7IHmuDK9cmLBiZrYYN2a9m/LzZp8S0thsTkA077FtFyW3IHnrN8AWzQbQY7ZOROl1Ehhmh3BbpQphaUeA85rgxk/HhR8b/37azV1M2HECzZsfmXmgbbs/GYZxFVEVrEhg10Uoicdmto98f2dFRUXCPtxtMW5MZP57FrWjue3exz5T9qWb2bVWQk5CCHgi+8B4+yHgkQMJGf+3BpULfoi7oaJDuK3c000Y4bDSu/6T02JPjhdtF9Jt8V0wX3+XXm1j3uznwOM7ydYiu4zVcMavhrOPfT2R5Q9sM27MrKkVvU6cgQcM16BXyp6W6i7YQEKFxhMgWKlYnv840F0bGz9II54kWc2BjLgCaDMR/94IfOKRehEgFCifAxuXXgVPXFhTr0fETYKAhQSUvscPppTPBlk60sJhDzsU17Stqqqeo3+9YFkiY81sM27MGcuPrjmVyd5XOIgu4YfdAeIGjG/DAK0v54L+7UJbaRDFg/VuxoJxxDCs4W3rK2LrPIUwBwkwiCoMHuq95sF7y2fNsryvjoMzE6KTgYDZCfzvZZcSWZoJkmRfiRbOdOwptdTP+AXR9Uu3JxKVrZ/cGdM/6wEZ+a+GdNY3kZMSY6cOAXXTZ0AXv2JvUDHiU7sPA33gucBlEf+eOrvJRTPhsEdlZIr+yeSXRNsFF61LuqjS66Qg0PgjGGszAX/A2ZcCrmtRohlv5JF9k/auW5fQRrG2Gjc5JWfkKL+bed/eOL8CU8LF0VS6vEhNmKeyfyvQ9x4DiIWaMErDH5XMPlMnXw/Ul93wh8UTgsBhCEgUVnhk6frYdYWLEumaFwshCPyagJkC7ut/fKd4nP6DqOpRthKKRvd4DPpgz2z9iUR0Av/5XGw1bsw+FmUnPnxSZYy+hGcOLW2FKoQlJQEpWo3F/J4Hw+ZifkT1goQp4UbrHknJTSjtbgKE8n94o7U3xm7vW+FuTYV2qUagqKjIs5a0OInqxmxbU8ARJK8Nr5IJmWys/+Q/JMHtRmw1bsxN0rx0fkFtiy6vxxkMtTVCO9V2aJrMhxgaSMveBLbmY9wuzNZZq31GgYatGMQlCFhKAOvbSJQ/1GrBg/fs+NesiKVji8EEgcMQyCoamRfSaydyr+c2UOxMAccgylBkvuqVb9VWLl6R6IWy3bgxs6bW9T7xzhCFiUBEYHGiFzjZxzeDipVNnwNd8lfgaOjYeUn5nYGMnAiG4rdTrJCV6gQYDwVpfNItNXP/Uio6gaf6artufp6+x/egocgDLCN4Kipnnw3AuCZFos/6cjz3hb8s25VoMPZN7Gcz8T25abhO+SNUguJET1CMn/wE1JqdQN+ZATya0Piz/wFFgtkglVwGRr6tmZLJv2BiBocmYMAW/+YvLog+fv6nApUgYCcBM95G6T7sFGroD5DMzCJbZUfj1TLwW/OD0Vd3lJcn3GPpiHGTcd/HLeKZbUoNQq42YdsJWMhKPgISMCBv3w9s71ZblSfYR07qPQqMXqMAJBH/biv8lBVGGPbVeS+46fMJ4ccuSFjp+ZTFJybWJAJduozyVrD9k6nXMwl83mZNGqyBD/NweLMqey8Ymg/LEtUJ/OcqOWJYoCtWeqDFJcdqnL7FONiXY9/AxRC3u4eAp3we6Mvno0L2NkVQWnUB48SJwFUbq5O7B7vQxHoCGmaK3g0rH3oQRH0b6+mKEQ9JIFhY1CrizX4VvJ7hICt21rngPBory/AEzgstf7/SjgxBR4wbk37+zS8HD3Q85j9xDsNEp3DxRh6OgPL9CuAfvwQsHj7crZb+vZk1JZ9yE+h5olqxpWDTdDACZL+0f/vl9K5j/mnHB3yaYhbTPggB85RE7XXccIPR14nHi9nK3K4u4AAMi/cZxiPgC98J5eW2FK10zLgxQec8veX2EKOTKYcssRsFgUMRkGv3ACx8Btj+hBa1/F8VsEKxMuAMMIpOAk7s+ywQuyE1CUgcVitv3X++tvD5hGeLpCZBMatGE8Au4BAN3IyF+6bhMbudXhsAw6jiBr8MVpfZZtQ7ZtyYC5TzdEXfcNx4RJdJSaMXTDyYFgQkiinhS/8GdL39MZgSHk3BcVdiQT9hg6fFZkvUJM26Hpy/nvPm3dccKHvJ3m6wiZqTGDd5CBQd0x6bID1DPCoGEdp78Xj8c5DIpbDy4zV2SXbUuGk+4YXMSL+SGyIM7sCENI9dkxZykpAAxz5TGz4B+unfbG/FIPmzQDr2UtALREG/JNw57lGZQxw/526EN1+ZBWWl2ENYXIKAPQTqsqR6jDidqdJj2CgTjRwbL0p1oumzg7V7p9RuX7vPLsmOGjdmYPEjmWMGRjw5szBzqodoyWDXsienHLl6F/D3HgUerrJ3ApgppXQfDsaAc/CU2r42LPZOUkhLKAHTa8PYTkULnWvc3GdJQmWJwQWBXxFofuTQzP1Euo+r8mVYuM/Wwl08EtkvK/LkjvGdr2zYsCFu1+I4atyYk8yb+GpW+IjBf8LA4t/jr5qAXRMXcpKPgMQpkPcfB7Zjre3Ky9ktgZ06GZg3w3bZQmAKEOBgyBQ+Vrd+8/vYzLM3pcCMxBSShIDpRLjvrcXdtHB0NgkGzNpyNta1IIzX1Kz1ZwQvnXzm8GV2Fq103Lgx3WWZT1YcGyf8MZ3zXkmyX4SaDhHwrC0D/bM3zOh7mzUgoB5/OWgd+tssV4hLCQKc12CzzOnNqr+aWVk6zt4usCkBUEyisQQKiscEKkNV5+qETyd+f15jx2nUcwaNk2j0raASvKZ27ULbjqRMXR03bkwlcq94IDvUa9ydmB/2B3E01agtlDYPyXs2ApQ9Byxk89EUEpa6DAQ2+Hei5k3a7DYLJ0phM37aXgdVr7wHouWChWDFUIcj4C86ob0Wqb6DZWVeBpLN1Uh1rVI26KO9g7GHE90F/NccXGHcmN6b7JnLBmi+vL/HGGkr6t4cbrum799LsRCQT14GtmW57RCkjFwgZjuGll1tly0EJjEBjLeR43SBUrX16vg9x6N1Li5BwB4C5nert/dxZ2m6/ifi89meEcFrQl8qHmWKsWbJAntm/P9SXGHcmOqYsTfx7kMeCRtwATbUtDXgyW7oQl7jCRDMmpJWfQDsy3/Y3iUcsM6N0ncU6L2x35yoedP4RUy3J82GgYzMaPbpjPsq5z4ljqTSbf0dnG9JSYmyZA99kMryFRhIbHvAIKmpfdnjCd4VW/PhFrsxuMa4MS3MvFlbh4Z0rHsDpL/w3ti9FZJHnoJZU+w/021vpGkSknPygY+6Cag/O3mACU2dJcBhD4Sqz4Ap/ZY6q4iQnlYE8DvV1+P49jGuvY+xNuhutrEisQmaMRStTyzMl1+tKCuL2c3eNcaNOfGsyx7JM/qdOTFi0Jux4I/tVqbd8IW8xhGQqA7Sgj8D3W5bPaif+TolkEsuBaPjwMYpL55KLwLmkRTwcu/WladHHjp9R3pNXszWSQJFRWM9a9nOc5nH8zTG2gTt1oXHtZ0eST1ZO2fYSifizFxl3Jjem6wZ5Udi3ZsXKZEG2W5p2r36Ql6jCXiwoJ+++FX7j6ZM703bIuDDL8WKxaLna6MXMF0exMJ9CofH2s48fmpFRYXtv17TBbOY5/8S8HYf3jVuaA+QjIwz8W9t/q7nOokb/2Ra4CLY8K5ttW1+TsHmCR9+CxaWfuTb0aJwks747VirPOfwT4g70pGAXLUNyIfPAq3GnlM2X8SsWDxsPBhtj7JZshCXdAQ434FNyX4vsqSSbuWSWuGxY8fKb63efa7GeCnxee3PgKBsD6F0GltZ9rRTDWJdZ9yYO8o/+V/teYcez8QoGSm8N0n9jiVMeaLHQPry78DWYbFXDDK2+1I7FYM+/DI8xbaxHpbdkxTymkbArEpM6QLYvfFiuO/knU0bTDwtCNSPgHkCkjHwlPxYTfV05lHPsrsicZ2WtaFFSiBwo77iw6/qp7X1d7nSuCkpKVVWnHfRRfs1cj9mTuVbP20xYvITwF5TW78B48PnMHCN2j4d4sUj7NE3ActtY7tsITBJCHCIeDg8nvvO0/fsnj89nCRaCzWTnEAxdv9epWcNj4Ujj5HMjB7oObH3e97QdTkUfsKfl3F/bXnZXqdw2jvpBswy4/Y5LaBd//vCFM7H4ynbg6EaoKq41SECkhEH6e17gR7Y7YgGatGIun5TLFn7TZkOL9d+AjiypNYJNb02Oluv6DVX6rf0/Ri/X+x3L1o3GzFSEhEIFI9sHY9HpzJCLgJFtbulEeeR6PdeQq7tGYy+b3fhvp8vk2s/2swzw/nHP3hcWOP3GAREakoSvVz2qcpBWTYP6MqFjnhvpJxWPxT1y7O3ya59fIWkJhDQZYO95d2yYlLk0bPFkVQTQIpHG0ZA6TbsWAr8MfD7MSjQ5vRvg2o8HJ7vDWT8Ifbtwk1OGvWuNW7M5cx/+P1gTaDrVVHG78D/zG3YEou704GAsncTcDyaYqH99k8X421ks1v4oPPsly0kupsAg90qhdIOT42cbWcnZHdDEdolmkBhSYmvYje9j6jKVSDL9hfD1bDdQjT2QCtNfnrbtqXRRM/3UOO72rgxFffd9u9ORtsejxqcj8L/VJyEJWS7jwDRwiB9+hqwTcscUa4uc+r0KWAEhO3tyAK4VajBl3poZIJ201HrnMoWcSsaoVdiCJjdv+/9Z1kvXaOvEq/XbLVg+/c7j0aXKVz6wx/PP36pnR3AD0bU9sk3dFnNBZvRavwpMZ3PwMaa9qe0NVRhcb+tBMx2DMr3zgUWm5OV+44G2ms0cFm1de5CmEsJcMIkBjPYJ8tuh7nj7I92dykWoVZiCWQVjcwLxWsncr/3VlBku2Nt0JQilIdjT+TqkdKqTeXViZ3t4Ud3vXFjTiH7gvtz9WPOvTFi8Eloi2YdflrijnQiIBtYG+0fdwOrdSYwn+S2BnLsBKAi9iadtt1vz5XxSqVq+4VG6bHzBRBBwA4CZozqP77ddYxhGH8iGcFj8HtSskPuz2VwswM4hUvouce5ovN9Uhg3Zt5+5kNfdYv5cu41JILHU9xn98IJee4moC7/NxjfvAtADfsVxdgbpecI0IvPMX+92C9fSHQPAfz1CpS/DUuevxLm3l/pHsWEJqlMIKtocF4kzu+gHvUS8HrzbJ+rwTSIxxcENO2ycMWXu2yXfxCBSfNJXFQ6x7O55YDRMYPewySph2is6Ybt4x4d5L2bgZe9CLzG/orFJgUSyAbp1FvByGjuHihCE/sJUNgvSXA3e/a0p2DVKs1+BYTEdCNgdv7+bL80PB7XZkLAV4Tzt7+yKPaRkg1jRiHLfnKDQ+0Wfr3uSWPcmIo3v/WtzNr2PX8fZ1CKbjfR2Cfd3uJDzFdiBshfzAFj9SKHqKAfuOg4YMWnA1e8DukgxDpLgDCisaV+VZl46/6XljsdUOksCyHdLgIZfYe1iMb4VKYqE0BW7M+QAsKgumah4lFv19cs/sotAfRJZdyYm8V305sdeGGfR7ETl5k9Jb5F7HqDkkCOvOc74O8/CRxbMzhxSRl5WPdmAhgtRdy7E/wdl4kViSUKj7X4at69u1+5RVQkdnxBUl8BM+HmnnllJ1EOT2Cbhc6mE9n2WUfj1YTpD2Wo5JmaVUsdqMlx8BnbD6KJ5M3AqXdLHh4eo8YMg0i9bS9S1ET9xeOJI0DQe6N8+DQYW1cmTshhRla6DgJj6HgsnSWqFji2CE4IrqtIzNfL8eobjMl933OyeJkT0xcy7SdgxqJm9T+tWW1o34PE7xsPxIEPHVSC14RWKh75yjOPavPF3LlzXZMdmHTGjbmF8i96OFg7+JyLoga/FesvFor4G/tfLLdKlDd9AXzp34DHI46oSDx+kEdcDnob8+g7KV8vR7ilgFAd2y08l7Hj22mh6Wc5E/iVAhDFFOpPoKC4OLA7lnE6Nei9JODrWP8nLbzToCESi72Q6ZOnVX+7pMrCkZs8VNJ++gYfWtWKBgKTYpxdgxSym0xCDJASBKRoNZDFLwHbttqx+cgdegEf8jug/hzHdBCCbSbAeaVMpMvpvpf/DaWlzGbpQlyaETC9Nt5ex/Y0otqdPBg8DSTiSIgGj8dXK5z94cyeBR+6yWtjboekNW7Mxc2d8XX7qD/7UY3BKOxK58jiptk7lQTTxW7hm78EY9Fs7DflzHcMUb0gDzwLjCNLQHRLTIIt01QVzSMpg7+bsfydS0KzJ4n076byFM8flkB+r17BfXrutQawPxCft5Uj3+UMNBKPvZQh09vdFGvzE7ykNW5+mkDGw1+XxHzZ92N1E2yuaXOTsMNuQXGDEwSkeC2Q9x4Dtu97J8TXyZRyCwBOug5osJljOgjBNhFgsB9iNTfCrX1edkumiE0zF2IcIGD+sA/0HzkwFok+Dh5Pf/Ta2F6wD6fNeTS2WfaoN9x51rH/dmNmYNIbN21vmOPf12XAaVj/ZiqXpCOFgePA2+Y6kdiSYe0ioF+8CWA4VGrEbKp51AlA+5yKbRk8riMkFLKIALZaIIwuVCOVk7QpQ9ZaNKoYRhD4TQJ1qd9MmcpAugQNm6AjqAw9QqLa370STImuX7rdER0OIzTpjRtzfmb9m5r2va7RDDoRFKlABBi7cavZq5MUwlYMH88GvmuDvYJ/Jk3KwGaawy4G2rq7YzoIwQkmgBU+sI9UaYuvnn5u9yvTRfp3gnGn+/DFxVeo32jrT6GUTsfmmJ2QhyPf4bwmvE72Kvd0I/vnrHJpsUpHwCRigwavfy0/2nnQlRhlcbMo8JcIwkk2JjbUlDYsBb7kFXTmORN7Y7ZikFsfAfz4a4CqomNIku2gw6uLkTZgsE88oaprtTsHrBZHUodHJu5oPIG6MijrqruHo+FS8HnGYHNMZ1zCjMdJqPYVT2bg3tjXH21x675PGePG9Nb4J89ro7XrPZ1ycgYaOCLAuPHvUUo8SWJm7M1M4Psd9JoqHlCOHgdGlyEYEWZ/VfSUWEi3TsLAVguc39dq7atP75hV6kztAbeyEXpZTsDs+h2D+DW6mSHs9bS2XEA9B+TR6BaZSzd3U/a/7VavjTmV1DFuzNmYBs7M5QOokjFFA3KyMHDquVtT9Tb02CjrPwb25T+Aa85ULTbRSjmtsGv4pWA0K0xV0uk3r7oMKbYIInuvhSlHO1d3IP3Ip+WMTa/NOxurR0ej0XvA53Wmf5RJnnGNx+JvBCB8W2Td1zvcvBipZdwg6aKxpZ6Nx44/WqfsQUpIfzRwRKlYN+/ABOsmh/cBlL0AbPfGBEs6xPB4PKV0GQh0yIXAHPIkOzf5FJVMSASNm7vgkz8/BXNnRlN0lmJaLiEQ6D6sta4oMwyJnAmS5NwZt2ZUSEBuPqtH83+6ra7Nr5cq5Ywbc4Jjx86R/3FMv+HoyLmbKuRo9OiI8wCXvKS2q4GxN/LmL4B9/DL+6sCCAQ5dBGNupMHnAu00SBxPObQGlok1M6Q4L+df/P0s+OvkbZaNKwYSBA5CoEVRScY+oJeDqk7hRGrhGCRNi0i68ZJXlu+JrFm80zE96ik4JY0bc+6Fl5T6dgy4ZLROjYdwQxTimZUwcOq5KVLtNkmLgLTgSaC7HPTeIFSpWVvgx14OLMex4/JUW1pn5sP4PoWTx3uvXnB/+awrdWeUEFLTgUBxcbG6iuYOjcXi9xK/dxDO2ZnvMYYHUqHQaq9HvW1wvvx+WVmZc78U67nwKY6QzfcAACAASURBVGvcmPPvMmqid9uo68+NU5jIFamfqIFTz12RareZ3putXwP/5DXgGGTs3IXHU537Ax18ATBPwDk1hOTGEyCEgkYXeqI1t2h3FK9o/EDiSUHg0ATMjt/T3/28W7S69g6mKmdi12+/Y8w0vVqOR5/xUjIzvPnz3Y7p0QDBKW3cmByaT3gws6bv2NM1yu4DmbRrABtxawoRIHoUpEUvAtvq7PdRXWPNwZg91QlPSx0pLJpCi+rEVCgckIDfk/fhrFl7337ISUvZidkLmTYSMI+jamRytcb59WjYtLFR9P+Kqg19Icve23pnhJaUl5cnhbcy5Y0bc5WKr7hCXXHU5AvRjzaFA8HCR6JNg6MvikPC5cpNwBc8DTxa45AGP4iVMpsBGY7ZU/ldHdVDCG8gAbOujc4X+mv3Xh6dOmi7W+t7NHBW4nYXEigpKVE+rVHHaPH4DKJ6OmBijBMtFn4goxkhomtT8wh5bu+6T5LGoE8L48Zcn+wL7s/Vjjnv4qjBb8WNki8MHBe+0QlWiWArBumLN4Ct+8QsG5BgaYcY3izuV9gH2NCL8HjKmerpzk0+iSVj52+IaVMhMudZ0fk7idfR5aqbvaN8xSd3NrT4A0xRzJptzsTZmJw4xtrEYl94JH65tmpJUhWqTBvjxlwnsw/V/s7Fl0QpXMVlcpRo0+DytzwB6slV24FjajjHfzp6yQrIPY8XvaccXYQGCDdjbXT2GlR8cQs8dkFSxBw0YHbiVpcQMA2bYI/hrTQON1OvMgEkOcdJ1Xg4tk1SpHsKavSXt21bmlQlD9LKuDE3Sdbz3+fFwvGTsJ3ivVgvoFB4cJx8deyXTTgFaeUHwJb901nvDU6dBLIBhmJwcbs+9oMQEhtGgMIej0ImDvn7hHnJkCnSsMmJu91CoPnQoZnVIe85eix+B/H7Ozp6HKUbMRKNvK1m+v4Y/3rRhmQ7hk0748bcxCWlpcrivItOowa/CRQyUBT6c8urbY8eUrQapI9fBLp9XZ3f1clLyi0AGHE50Bz8Z4oVDHeSq6WyGYQlyuZkxnfdVH37sCpLxxaDCQI/EjDjbL6o9Zwaj0RvY35ff0frs5nHUeHQcpmof+qm7v+Pm9ss/NYGSkvjxoRRcEVpYG/3C0/SJFKKoVo98I9U8ZalCQGMt1EqvgT26evA4w43csZ+U3JhX2CDzwfmzUiTBUiyaWrsa1mmpcb1R/6LmG0XxCUIWEzAPI4K9Dm+QDP4n5nMTwLZwbRvc26U1pJw5BmfxzMzGQr2HWw50ta4+cmDs6TFRUdzA26lEozCPxOtGix+ad06nBlcLC97E+jqMudVxJRwpc/JYBx1MnBF9Ht1fkF+pgHnIUnnd+btXv3C3odOT5pMEVcxFMocksBPhk3coJO4LE0CWXauvYKpKePotYks9fiUa7TurVbB3Lk0GZcwrY0bc8GKizFN/MTTevGCbvcahAzFPxI/n5NxJzdCZ7lqG5AFTwGtxf5TDl9m/E1d/Zv2/Wypf2PmlTKH5+x+8YRhEPFS2LhsAjx57nfJFnPgfr5CQ5NA3qBRWeFQdLzG2UTs9n2Ew1Q4ZgTuIpQ+3IllPbVhw7txh/VptPi0N25McmYlyPtqe3Tjhf2v0hk7H2SpmcikavSeSp4HGQX5u8XAvpgHoDv/DkvBXAwIw/YM+Z0xEki8mo5vJAa78VfsbVD96ssi9dvx1UhJBQqKiwN7ad4pWjgylQR93dCAdi7t2ySs6xESib3uUdR7Y+uXbEpm6OIT9MfVMw2cB32nttX9eZcbnF0CioSNgLjgk8y7ux66S9iOQVr8EtDvV9bj7sTfIrXpDjDkAqCZLRMvTEg4FAFNMvhr3nh8avS2oq0ClSBgNYG675x/fTZE16LTqCwPByI5HRZBoSa0XPKod3WT9n+QjEHEP18j8eX9qx2bf/P7wf3tu56tM8ykkgAtafBYvanFeO4iIO/ZAPDR88DCLkiEwfgbtVNfoEejgSMCjJ3ZKNj1G3S6XvGQy42Pb/8sWWMOnIEnpNaHwNixY+V/VUQ6xKOhGaAqp2CmpOMJLRhns0Ni7PHsbP2ZqvLy6vrMw833COPmIKtjGjh723YZwQi/lhOCFjWILodu3sVN1K2ucvG37wFbMR+zBFzQNkVWgfQYAbzPKcBVZ2MLm4g2OR9nvFKh/IWszd/dv/+J0c726khOgkLrQxAwA4j9g04rNMLVE7Al0CTi8WQ5DowzndeG53kUuE9b+9m3qRBfJoyb39hVY8fOkd/q3/kIw5t1HSPSeejFyXN8AwoFEkZAiofQezML+A6z9o3zF/EGMINqNOjd0chx3FvtPA/7NECvTcyY41E8f4r/ocNakfptH/l0kZRVNDIvIsVvMQx2EfF5nG2IWQedMB6NfKcAn3SkXF2W7MdRP+0jYdwc4o0yz0Qf8p/QKqY2/x0jyuXYVbyTKPiXuh9B8vZVwJe8AtwNx1OIWfJngYQVjI12vW3JoErdlW3AzAzYA7HIubD5iU9g1iwXuPEaoLu41fUE6ioQR/3n6XH9LqKqBY5WIP6JlqZVEsZm5ej6Q/s3fJ4ynkph3NTjdWh+2q2ZVSdefTyl7Bo0cIZhVVtxVlAPbkl3Cx5JySvnA/vmXXccT5m/qbJaADn6XKBteuJ/iNc1oXuK81pg5K/wz7tvgLKXYgmVJQZPOwJtBw/276n1nq1RNhk9NvhCu+Cqa7EQe0v2KfdrKxevSCVPpfi0rOf+Kr7iWXVFh55FLDP/GsrJqWjktHS0PHY99Ra3NYyA2ZqBLHoR2E48nnKyc/h/fasEpOx8IMdfCUZWa2HgNGw563+3GURssDI1UnW7fkf/L1Mh5qD+kxd3JppAQfGYwP5oaHCc6feC31uML7LTmVE4ZW7wA7UrvQHPXc18uQt3lP8rkmgOdo4vjJsG0s6dPCe7pqDfuYyT33MZeuHjIpuqgQzdfruC2VNs0WzgtXtdo6rcuisAtmgwclxwRO8aKhYpYrZU0Nn3MpAp7d66+80K4bWxCKwYxiRg9oxauh9O0CLRGyAr8zgsYuUCwwYV0/RdJBp/NCvL9+yBb8oOpNpqCeOmEStqWuGV40p7UV/2NYzAyRgd0QwIN4u+iisFCBBmgLzuY6Bm53AXFPerQ2r2oGrVGWDYJWAEm6UAZRdNgUG1RPlLgcqv7g3dN3av8Nq4aG2SXBXTsPlkr97HoNIMUOQBoDjcM+onnozFeCz2N6/iuS++8qONqbjnhXHTyJenrh/IhQ+1MQadfYpO4WKsatwHDRx/I4cTj7mMANEiIH32N2AbvnCVZlJHbM8w8BxgwsCxaF3qatos8MjkJm1S51Wp+CFvESgxTAMJ1Bk2e4xiXWfXE7/vLPyOcEfjOEZ1Ho4tV3z+649pzr4oKyvDjPTUu4Rx08Q17TLxce+WZkcdRXPaY0YVnCticZoI1EWPy1XbARb/Bdhes0CtS5pBY1q41LYH8CG/AxbIcRGtJFTFPI4y2DY5Fr35rPI1b86dOy4pGwQmIfmUV7m4uFhdEcssopHIFB7wjQQ31LL5gTrn1bVrVEV9Kr8ZfXHb0qXRVF0MYdxYsbLoxcmZ9s/scG7vcxjw8yj+tkYrPUO0b7ACrnNjEM5A2b4S6McvAY+FnVPk15Ixa0rucjSw4tPRwMF+VOJqHAEKVRLjL2bu+fze6gd+54Ly1I2bhnjKXQRMr76n6Ng+lBoTuaKcg4ZNpms01OJVJKI96Q1kPh9Z+cH3qZQd9T8fk66BngKKdBk1yvv9sPs76IGsc7Br/Jkgw1EgSR5h5CTv4hKzuebyd4CtXADcLfE3iJOYVYw7FgPDIyruc89nZ9KsNAeNaPzfiizfrVf/ZYVojJk0K+dqReuChyvjhXEqTyOKPAZU1T0vJzWivDbyb6+P3DE43785VY+jftogwnOTgFel7Q2P+Hd3Or2IUn4tHlWdABJpmwAxYkibCMjRGiCfvwF0c7k70sN/mjcGGUvdhgHvNUocUTVkL/zQO2qtLEm39lmzYH75rCtFsb6G8BP3HpSAWfT1vjkfdDei+pU84L8EPC4ybLAKMUSjX0uETD2rZ6v35s6dm/JHsMK4SdSLiq7JjCnvNo+16l7MmDGByWQodn1thd+OIqsqUcwTNi7mbtbuAb7wWWBVO9xl4KAHR8ZO4mzoRcD85o9E8Uofdhtw2IXZUfc1++792ZVPXYt9N8QlCDSNgBljszoW6KtRfgOT5ZPRsHFTQBzlofAWWVHvy9bjc1OpCvGhVk18EjZtTx/26bq29t/lFWhHjxlKKb0Uv3wG4HGV6FN1WHLuu0GuWAZs6RsA6Mlx1YWdxKVOA4APOFPE4BxuYTiPYy+Lv/q//XBq9Pnfbzvc7eLvBYHDETA7fL+zek+/OIcpTCInYJfvjMM9Y+ffo2GzE7t9v+b3w8Ohbz/bk8pxNj/nKowbu3YZNuL05UN7WtC5RA9kj8cf2D0xHgejQbEUoLiSgkBd/Zv1S4B9Oc9V8Td18MwjqtZHAgw5H2hmC+HBOdiOMg0bHT5VeWzyHaG/l+MPD5YUG08o6VoCZkuFXTW+ftTQJ4PXc5Jr0r1/IsZolNSGZitB/zPaikUr06nUgTBubH5tTCv/7REPdmE6nGQAH4cJxkXYcVykvNi8Do0VJxlxIEtfw/o3n7vreMqcEHpw5HY9gQw8C3SzVYO4fkkgzlfKEr+7Xc22tytKR4jeUWJ/NIlAUdFYz0bYP1TXIjcwv/cEkF1SoO+nWXFm8FCkXPX5ruvlrV1eXl6eVrFlwrhp0vZu5MMYj1N85SxlbYfOeeFgh0EEyKUYidMfrWpsIoQ9R/DvGzmyeCyRBOrqovCIXLVjn1L+ekDbvh6PF10WQ2WmiTdvj60azgOjWWGdwZP21w/rthtLFf2pubbz1b2Tj6lNeyYCQJMI5Pc6KVjFjJN0LXYjeL1YeVh2R4G+/xo2nEIovExS5IeGtVLfTvXMqIMtpvgSbdIWt+DhklLF17l5G9bnlKMpY2OwRk4JujZbiaacFrC1dggDvyArgLIFQSO0NHPTR112r/j4MoiHTReJu94jNHCk5h0A+p2G3cSLrKWQlKORiKTTv/mi1XdGphTvSifXfFIul8uVbn7k0MwqxXMSJorcgqneffHz2l39BbEOCa+t3aaiYePLCbxe+8XCfS5HmhD13PWhnJApJsmgGHicc6BDVqxNv36GmnES5TCEK6QHfm3mCEPHoTUkBG1NHgLKvwbGP1YjB97Ra1asGds/M1I2d7W/pmbHldq+HTcCjRU4pOEhxZJgHsgDzwTarg8wxV2fv7bx4hAHCvM91Ztv06Yev0YYNraRTzlBdS13eo9oE2dwLmd0Avh8R7ryszka3cI1+lLQ73smtPKj3ekSQPzrDSeMG5e9guYL1PLap4LVPUd1Mgw+FCMeR6E73cywaob/VF2mbqqqo+MXotkSfKlE4AOmyItgw7wKmHnjL0qV+0+/sZ2+f9cNtHbPlWiEBtwIgwRzQOk9ErQjhmPQsTuaEdvHCY1TjS2XFflPfVbN/4+oZ2Mf+VSTVGfY9BlSoEPgCkM3LiYetR2+8+4789X1KIlEZqtqxuO3n3/sd+kcNC+MGxe/hWYa+YzaI/L0joN6G5yP4EBKKIGumMqahS+WV8TmWLR4ZkwG4xqeLh3AE50KAvxdicHCzB3l317vX137Wx8Q5geef8T5HbTa2vuYHhtNZJJtkUbWDoNeG+lILPZ31InpkypurqmGhfqYdHf++gVv7Zh1ZcRaqGK0dCFQVFTk+U5uc4ShR69hsnQeUVV3JoDEtVrQtI9UiUyecsHI9els2Jh7Uxg3SfCGmkbO05+G/FVnTezAdTYIgA3TGWBRQIK/HkQn8qYtIdcJI9sViSxinL+vKOSrFh89sfX7OY/E6uPONdfmnoWrB9MDVVPQrzbSlW5qE5CsgNIZa+EUnwGG3031xZq2er/5NOc1wOBhWLHoMXjxMhFAnCDMqT5sXQNMo3lfGqu9CovznUE8nhz83HXf96aGaZy1tYs8Gb5He/pjC9ItM+pg+9B9i5Tqb0sT52d6C0ZMK5O/qq7MihQO7M3AGI0ltQdTifQgnGfiMVa6nT00iCiyMmubVBPGV3NGPmWEv5+xoXxF/2YtqspKRxgNGuynm9HA8b69tJNB2V+ZxPviH7vz+NAMNM5rC9Kgc8DIPwIdgO7zqjeK/68fwnBKnNzzsPyd+2H2pEpLxhSDpBUB83O2xTGnZ1SHw2cZun4jKMoRWJfM50oIjOrY6fsTxRu4u21r6dOKsjJR5kB4bly5VeuvFNbMyd4ZyYr2+V0+dBvYhxN5IAbKD6AU2qNPLh97WommnebxBOd6XSqwTL7zyOQrYPQL+PbDbwPr3911APqEoKy0cUbNz1bKrF/01sbw2XokfDMEPP1c68ExAwVyW4HU91Qw2vfBRPYUs4U5xHCt3/XIcJdW9epq0RCz/h8n4s4fCJje2IffXdwiGmbncolfjl7PHqbv05188GdaNLpWBv5QLod5e9cuCYmg+R9WSnhu3LljG6VVSelHSvmO9TmUxTrgl9cgNN+PMCh0x6OrThiM3BIH9eOvj9Suo4MVTbD2TAzru+zBzb3JI/Pv8Ax6DdtT8aln0/KNJ45uUzt33LiENI0rKB4T2G3oJ1MtOo341O7u/UA0fUteUHuUgNHjOOxJlSLHVGZmlMbmKzx6/x/D8z5P95iDRn2IpPlDdT2iSOu+8VjoAkbpucTrbenKwGFznfBHG7ZW+E72Ko/lgfJa5aoy0SftZ/tXGDcp+jKbvz5eKqvwVJxza74SlzrhaUx3TjxHUJkUqzJ01BnJQZcGFp7CswmsIph0wcl1Hhn8P9Qcf1JpigQHMH1+Cxjsc6LHN3KZrDFU+K7txpV7Ls9eHbfri86sgbHfH5iAnuLriaJ0dPP2IhhoTNoWASk+HYxs7Oma1L918LjRYCsVRm8sXPDkkg3vPhF3M3uhm/sI1LVSiGb25TR+ByNkCHpsXG31o2GzUeL8RT/lL4Q3f77bfUSd1UgYN87yt1W6eY7c7MInMrU+g9vL2S2O1HTeVtfRqyOxQlmWzC/iZlif288ox6IoXKnz8mACsaOGj1lrBqtl4fmJIUmgKzIPYzxfFTX4Fm5AhSSTtaoCW+UDu9Z7N6zZXvnChFB9AoETCd78kNwRy7qY6fE70MApcO0vvx8hSLmtgfQeBaxDX2ByEtbDMfeIQdfLMa2Uxub+XRxFJXJ3p97Y5pHyv9dvaxVnnnFY/m48eLy9XFd5/OfY8YMc2ypslTj9s5+Rl8ObPtsjjqL+d18K4yb13tXDzsg0cqZNm0bmzl2l7M6JeyOSkiGdeXceSLSZZkCe4QnkK5wUEhmOxOjbdugRycWXx4+bxStLoGKmloJjKD94fMz/j5Gq5j9/usw/P9hlelr+/54f/50z0wODQzAVvTFovGgahSjFoFD0yFRxwiu4Ia3HQN3NHh7b52V8L1fJATb7xv0BnzfUIdYqNmZMAbXLM3NYuD/ekNF3WIsY9fzBYMZ4TB1t43a3CPFlgtzzOKBHDAOG/5401w+tFb5HC3xGxoE9r9aUDtmfNLoLRR0nUFJSonwSVnvymHaRQek5eAyFBTmxBY57L86jsd2Srr3gUaXnY+edvFUY8wdfLGHcuHcTO6bZTxlZazYu88ao4TE8spdqNMAGnprB1ECWASRX5iwPvSZ5nElZMuFZBuN+LHhnBjB70M/iwbMu9Jiicxd/AuGHBVowWBZPkjQgTEdLRlMlKU45qyWSVKUzjuXB+T4F5CpJqwlJy94Jyx45omg0HszIi2N/A7382StQLH6RJdEV7Hl8fpzAxYah/4F41VauTCH9OU/sLK607gqszxhgLTqis8ylMZQ/15mybUClJ3Nqtz57oHTEgSTaHkJVBwmYn3FZg07Ii4R1LJTKbwXV0xffT1cW4vwvJtNjE41VKsx4WWXs8ciGL7Y57aV2cAkPK1oYN4dFJG74BQGzqSd6faCsTCqqbCFVZ4Gsh6slGg9LNMOPnlIDzRdv3T9//hyRFS6pcSZ5/UwORZkke7gazGbZNUBXtahkUFLCYOpU9P8klwFzqN1hfoAGewxvhdHN1zKJXI5VTfNdv5vMdHGMv5FML06nQdi2wV39AH/Bj8IBifGnvDV7n45OHbQ9lfaO6/dJEitoems+OwBt8Vh+PNO000nQ3wt/i7nZW2PS5jwc2SMbbJ6c4Xtqylklq93mrXbblhDGjdtWROiTcgSCPQehByd4ncHolURVmrveg2OuAMaZK52Kgfc8EYw87DLutrplOt8rET43WL3trtrSEWarDHEJAockUFe7ptsxGVUezzBsUnwpnp6fDB4laO52V6P7wWOzW6L6X9QM3wundc3fNHfu3IRkfLqaQwOVc/eiNnAy4nZBwJUE8EPV131wB0MNXG9Q4zyscppfF6/k9guPpaSsFkB6jcRgY2y+qbrEa095rUThDSW861HtzqGrhcfG7RvJef1Mb83SWqmDHoqdhMfivwefH9ME8Rjd7Zdp2MS0fbJhvIFO1EdP69F2szBs6rdo7v+Ard88xF2CgLsJmEdURx3dMqqrlzNVvh6DjJu7/hfjj0QJ1sSR2mC5JLPwX04bZysbM2yroLN5vqrvS2Pq4u9FMKW7t73T2tVliHY9OjMcDAymBp2IaZeDiceb57Re9ZJvGjbhyC6FwRwlmPlYdPn7FSLGpl7k6m4Sxk39WYk7BYGmETA7C/fo30qTsq83JH4pkSV0i7jtvOc3pmjG4uS0Bqnr0cCOOAaox/Ti2P3xQWJYpO91CO+aDmzBGmHYNG07pvrTZkmG3TXyERyU86nER4NktlDAqu32b9yGo/7pKErTX1EyAi+e3q3Fd8Jj0zCMdn86NUw7cbcgkGoEzE7iRw4p0L2BKw2qXYy/Itu6vQ7OL5YAiw0p7XoCHDkcjILu9rVvQI8NlukrU/dU3K55l6wVhk2qvRjWzcesW/PuV9ubRb3KqYzDudh2ZTCoavLUN6gzbOLbFcN4TQlkPDumW+4WYdg0fH8I46bhzMQTgkDTCJgenG7HtI4ReTwj7HKsrdEpaTw4P85cCmBz5K6DgHdBT05Wq8QeVRkQBkrnqrG9T99hzF8mskSatv1S9WmzKvtj/1qSWRvRejODjsHCWeOSoG7Nr5YDWyrURrZij5xXFb/y8m1nn1Ah9nvjdqwwbhrHTTwlCDSNABo4eRgLcED2XIBp4pOxDk6HZDNwzAwqORtjo4tGAMMmnDQRPao4CeNR1Duwd8Md4Ptsk/DYNG3bpeLTZlxN165dPVu87bpxYGcbBj0Ng/a7gSK5uI7BQVYClee1NaslBi/7crL/euvpQ3cJw6bxO1YYN41nJ54UBJpMILdTcXa1L/N8zozrwO/rhgMmQeW8X07bDDiWWxTWpY2zlp2Befx4QxM/Wn7oHRaVdPa2HNrzkM7mLxeGTZO3W2oNgEZNFzRqtvlbtdE1diwjyoXgVQeg0R1MqqPeH1aFYrr3Fskwpvvk+FvhtV/tFMHDTduuTfwEappw8bQgIAgAtCgqydhvsNMpNyaRYKA4GQ0ccx3rsqraYz207thtvDkaO02pi8agGrOi3vPs2/InbcOz60DU9RCvys8ImEdQ099a2CwaJyOobowlijwUvF6zxIKUdKCooWO690pJUWfnaLG/7P/us1pR3qDpqyiMm6YzFCMIAk0mkN+rV3Bf1D+Eqp6p2LivP35IJ5dL/ScCZpN5fwYohXhM1fUYYNmtsQVrA8uJYB0b7Bf1sidS+ezp325bPXfuOFGwrMk7LDUGMIOF/7O6Avu2eQdgT5dzuCqVgIKtTSSiNt1d6AAjXY9CJFYu+T2PBajno9q1C7EVjbisICCMGysoijEEAQsImIXGluzWR1BOJoKsjMDqqRkWDOvMEGbqeEYeEOw0Dt0wdTwzv35Bx5Ttkyj/F6vdPg1gkWgK6MzquU6q6al55Pm5OZGMvAGM0dMYgeOIP9AxaX8EmITRsOGR2Iey3zuruexbuHvF/LDrwCexQsK4SeLFE6qnHoGioiLPepbXEzuxT+SSdCrGEJjF/pL3Mqsco5EjFfYF1mkgcKyVww52XMUx0VszdkkcXlGrd74Qv3v4BuGaT95lt0pz0+D/cm+0WRy8vVk0fgKXyClYXbgTyBgsnCw1ov4XBkaTxfeBFlske9QZbVt5vq4oK4tZxUyM8wMBYdyInSAIuIyA+Sv1gXkfdtA0dgVX1CtAlXOT/l3F4yopqznIHXoD69gfaG67X3Ydj7MtEmWzfdW7Z0XuHbZLGDYu25Q2q2O+AzPfXJAd1qUBxMyAkpWTQFUKkqJlwiFZoREfj+0l0dgrss/32hk9Wy0XNWwSs7mEcZMYrmJUQaBpBDATJKtdz9xQRu6l3GCXQBAzqaSmROg2TR3LnjaNHLNGTjts7dN5IOhZBbWgK+tVoLM8qvx2+JYeu4VhYxntpBrITOnu2LGjd3dWYXP89xN1zo/HI9pjiKK0wj3hSYp+bIcizjnl4fB69E6+6lPV2QPz5cqysjIjqRYpiZQVxk0SLZZQNf0IZLUtygv7so6nErmF+H190MAxAydT4pL8WZg63rVayW1X7gtmPyFRadGBpy44IFJgU2J5GzSJwsIS384c1k6PkxMYp8OJJA0HWW4GipycgfW/nj2lMR6KrFM96lOeWNXb4c0rhRHfoB3S8JuFcdNwZuIJQcBWAmYczjqj+VAq0YmY7joSf8VaUEjG1in8tjCzno3kiUrezNXEE/hIBr6QkPjazs30navmzNGFF8cl65QANYqLi9W1scxmGtMLKZFP5oyVoEFzFAbSZ2HEhJIAkU4MyYGyMA+HPpBV5a/ZBv1gH6Z6CwM+8UshjJvEMxYSBIEmEzBTYN9aV92d0vhNFPgorMCa3+RB3TUAnaB/YgAAE/pJREFUFu2TIkDkLZLi/Ub2Bf5FaivLW/hD2y4fOTIuKrW6a7Eaq4159NSzZ091U1xuqXlz+3LDGI2B8wOx91M3DBJOHaP9R0BYvwaz//SFsuqZnl+trdy2bWm0sezEcw0jIIybhvESdwsCzhEwm272PrpNnPpOY5xdT7yeTin0C/cnrhy9NYzrbC8mk2+W/RmLuMezxKPr3+QaW/ZfMWZMTBg6zm3BRkn+sZLwTm/b3DgnRQYzBgKjx2Pfp6OwRUIe7mGzKndqfRdRFufx2GZFkf8mG+yN+PknficqbDdq9zT6odTaUI3GIB4UBJKEAH5R5PceGdjLtTPQwLkGY3AGYE2clInD+eUqYGYJYxEO8i6Zky+wGOCXsqJ8lBOu2rhn5Udh4dp39541vTTthgzxVUbVtkacYYdVVkJlZQiRpbboqfED50nXaqRexBk1sDDfV0RSZvuV2D9vGXvKHmGQ14ucpTcJ48ZSnGIwQcAeAmYcznc8p6tByQ1cVU7FNNlUO6b6JUizDg5nUc5hm0SUFaoiL6FEKQ+o3jX9vJU1IuvEnn13OClmCnfpvHl+j5FZiLZNPywtfQID6IcGeDui1hWlTE2DxgSDvzawMN9+oEaZTOCRVrn8m21LxTHU4fZMov5eGDeJIivGFQQSTKCuHs6bSwpjhjYGZHIzUVSzDkjy9dZpGCcM0OQaAK9Bj85WibNlWC/kK5VGyuVQzZba3p2qRB+qhgFt6t1mPNiC8k0Z2L69vRTIHRCjUIy9norQM9MZiNQi6bpzNwaImeZdG9qIbSDmqIGMeb2UqpXl5eV6Y4YSz1hDQBg31nAUowgCjhHo0qWLd3Og8FQMNr6ESPKxmHGSkcTVWxvGkRAKOg2hwbONy2QVMFiseNS1fpl8T3Z9X9kuG0IrV67UxRFWw7D+5t3ojoERI+S8FdsCkQ7tcw2DFjBOeqPT4miMlOqLQcHt8cgpG59Pj+8WPHsDg9ZwLf6ljLVrAnp4/k0XjNkvjqEs2m9NGCY9NmATAIlHBYFkIFDXtsHTsjuL6ZMotm3AbKqWyaC3pTqaho5BsYw934MxOhuAGeVcUj9XCFuTRfn2kh4toqIabOOIm17Cp/G4qYbl5OmSfATT9AGE035MVorQmOmAsV8+HDl1j5wOig3NuUhkj2QY8yWv7/lCLfDFhg3vxhtHWDxlNQFh3FhNVIwnCDhIIK/LoKxqn/80/N18PZPlHujBCTiojrOiOUZBxLVaPKirVBR1o0SNr0DTV3Cfd7Pi923PCEUPtPfVxpctW2YIz84PS2UGAY8bN06au3SpJ9Cie64uSa1YPFqIHcJ6MQkGYgxNN0zZL8Cjpp9avafnd4hhYNPL6FcykWZ7s5X/3Drm+N3CW+Ps6/5r6em5Md21BkIbQcBSAgUFBYF9LYqO0Q3tEmw0OAoUJX2OCQ5OEs0cZmAxNdOrU4NHWLvRmNnIZGmtKiub0LOzjkfDO/2aXtVMahm78MJBejp9UZkxM59s2uStOiA182Tl5IdisS5Ulo/ErCZsBMbbI7MCxJqBR04+jKExi+ul8/cGx6Dhaq5pHymqd1aGCp9Vff1RtTCOLf0Is2SwdN6klgAUgwgCbiRgHiM8/PfFLQyVnGUYxgTsxH0UejBSo5R9o4CbH3X8l09iC0OMldDwKAu9O2QvpplXSLK6CThdwwjs8srKDhajlT4vqw7sqdVatwZ9zJgxNNkMH3MvYDaZVFFRodQo+Z5YZlaGYcSbMZ0XIJHWGKvUBY2WzozSHpjp0wwkOYv4PKYhk6IlBhq1gTAbikZ5OPqtpKqvexTvW2O65W4Rx5yNZGnDY8K4sQGyECEIOEHAPGJo0e2YjNqsjKFGTJtAGS3BWJzmaf7L+7eWwvTu4KkL0fBspgZbAYRlxvZBXNuFVXS3QkawMuDz7WGStN2IhSvk6IEq1RuMeMGrBVuAEaxswXqgaWAOPmfOHGbXL3lzjadNm0ZWrVpFNm3aJFVXt5RqA1SJS3tUrUr2G15PtpqRVSgpcltsRFmgaVoBj8VaoZrNsTJwS2xKmYmGnfk/NHxTpuWBta8bxnLxcAQrDbMy7Hn1l2CzjM9uHDn4QLIZudZCcf9owrhx/xoJDQWBJhGo8+LMfadljGSMZkAvA0npjUcMwSYNmlYPY40dgxpo8GgYwxTHQGUzO+sApt9XokFQhTV39sqSVGXI0n70hFTjUU4VoQz/R7GHkBInEosToJo5CqFhQ6rabigxH2ZwYX/ow1yUajLz6wrz5Cgso43KvYaHa7IHy/4EuKJkYM+KHFzLHByrGX755nBGc9Gyas4Yb8Z1LQ8DfdETI2F9GeIh6G5A55XwxhwO+v//PQdNC/FobJkkK//00vg/J48fs00YNfUH6OSdwrhxkr6QLQjYRKCuWmy7dr5d2V37EYVfrlM4GYuqtUDxaZbhYhVwNFXQxYNHFVhFGf8dC+7gMY6Bxk8MzA7QBg3jEU8EpcWI6Q3CcvwSITo+YuBzOnqJtB8sGxyj7h/YQPQXF6Zcmxd2gcd+FKpEQEEBHjSoPLiWXvzzAJGVAPGoaOCYQeNcxSKHMqbCyxgRg9WOJKx3RHAMnup1j6xa0F+PQ7Ev1B4wjHcxyOgvGUHPigMYWyMauSYKt/XjCuPGeqZiREHAtQRMIyenV6+cqNR8BH4vX4qBo8f+8Ms+rYNEXbteQjH7CfD/a+/eeqO6rjiA79s5M77fwcFcbBPTAAGKTAsNQoKmBdGoUkWLG1V55KUv/Sb9DqkUVS20DxVtWitScalKSnEJhIQAdh0bMGBzGdtje+acfeuaIKKqKZWNx2bmnD8SCkqGM3v/1uawsm8rinJc2+EgUL8IVfaD/NXBh2u1zLj2vU3uNyK5SW5s0TMIPFegdPHf7ZqOHiOyJ2mW4Ud08d82+lnacIx3AsZNOgWMKdIpqFGaRftlkBWDHcHijcnh4QISm+ocDniRVWfc0GoIlEVgQ39/7RPf3B9rfcJz8QNKcLoov8G+jLLo4iFVIeConIfRk17TElSoftcmZv42dfXqIpagqiJ6z20kkpvqjh9aD4EVC5Q2HP/87FBr0cq3vDUDxvH9tB+nJQV1qlZshwdUtYD1Ws8zbT6kDeG/DQP5p/2t7AGKsFZ1TL9sPJKbZMQRvYDAigWenqoaWlcU/vu0H+fHdPnfN6maM52qwqbUFePiAZUkQBfxGarzGV+ko93vZ73/1Vu7N0zhzppKCtHK24LkZuWGeAIEEiNQ2nDc1bWv5tH65m5n+U+sM8coydlOszilMg54XyQm0mnsCJ1q877IouItOk42KDn7dUN8719PRkbyWIJK3njAyyp5MUWPIFAWgY6dh+tnsmKbj92AZVTGgfPX6E6VZzWFyvIdeAgE1kTA0h1FWt+g9ObPoib7m8b5uWuPR/5O9xD99xH8NWkNvmQNBJDcrAEyvgIC1Srw9Oj4oeYFFu7ykr3ttH6DBeE2SnRKVaDx/qjWwKaj3XTHIdUTi/XnXPC/CufPZET8yfe2b36EJajkDwC8nJIfY/QQAisW+DLJkbXbXVz4oZfyKCU4r+L4+Ipp8YDyC/gvLlLUZoQqwZ+nmZrfZxdmLudHLj/CTE35sSv1iUhuKjUyaBcEKlCglOS09PQ0FZu27LVMvK2dP8il7KVJnAxOV1VgwNLUJLovmqpbRl7bCdpPc4F7dzobscvH93Y+wUxNmgbC074iuUlfzNFjCKxY4FlRztlsZjvVKxqg81TfsZ73UQHGGrxXVsyLByxPgNIauqvG2VGpzSBtgD9br2au5D76aBYzNcuDTNKnkdwkKZroCwTWWoCOj7e+9179fLBuc8zVMSoYeZxlwr208biJmoK6VWsdj3R9n/WxmeFx/CnPqHNSyD/WzX1+c6a7e54NDVENL/xIswCSmzRHH32HQBkFNm78Vs10C9viVd13dRy/STM6/TwM19H8ME5YldEZj/Kailo+pr+8PuZS/EF6fb4hmh772TvvzKNiN0bHMwEkNxgLEIBAWQVKdasmM53rrfX7bJg57rQ5wAK5hTYfl+7KwWxOWbVT8zBLS0+0STi+LTz/h+LsA+6Klzpa5J07Fy4UsfyUmnGw5I4iuVkyFT4IAQgsR+DZCatIZvdQ7apDjvNv02zOLq5kM+3NQZKzHMy0ftZ5542e457fkJJdYEIOZr26cvxrTY+xSTitg2Jp/UZyszQnfAoCEHhRAdqX0/3uu+H9+t4uJ/xBq80hL8R+pmg2p3TzMRelRAfvohf1Tdrv894y6xaYcw9oRuaS9GyIM3uhrrA4mevvnWdnztikdRn9Kb8AXijlN8UTIQCB5wgcPnxY/fNevrmQbd7OrD5IHztiON/JueigZAd7c9I8cpw1NE/zmFl/S2k9yMLMcGjiaxvs1OORkZEYS09pHhzL7zuSm+Wb4XdAAAIrFCgtWfUcOZKZup1fp4PsVif5UVp6OGCl6ONCtTNJ9+bgR9IFSke4tfeOTjzp6/SX0WVeE/xFFRc/62gWd08dOxZhg3DSh8Dq9Q/JzerZ4skQgMBSBEoXA27d16ibWzYUCvFu+j/0N6zih7xzXVyqFiZEsJTH4DNVIsA5HeGOntAMzW0p+TDF95Jk4cWamfuTR/e/Noe9NFUSxwpvJpKbCg8QmgeBNAmcPHlSnr85m83p+Z6grnGXMfpgFOsdPFB9tC2nhXbmZKnsAzYjV9egoJNOVOOJ+Tlv7JhUwY0g4OddPn+lTpuJPZsbFobOnaParChiWV1hrezWIrmp7PigdRBIrUBp6aqvry+8G6zr1GF4QDqxVztzwHO2nSvVShuRVWpxqqDjVKzS+qLOCeFHBBeXuLUXuQqGm/3DyZ+eOFHAklMVBLGKm4jkpoqDh6ZDIDUCdOKq/+xZOZZjtQth3WYbqAPMmT2CsW8YFWwkh2bGfYiE5yWNCFpqomUmuhXYzYliNEqzMJ/4QF2VXHyYjfnEehPOj+6tN+z0aYcZmpcUo5R9LZKblAUc3YVAtQt8sRm5pyfzqKgaZNfWTfNxtNl6t5NxuYfuz/k607qNy6COKVE6fYV33GoFnOo5+VgXSHiaC3GDZmqu0am3jzMBv8UnRu+3ZMzsqVOnsCl4tfzx3P8rgD/4GCAQgEB1C1Cyw14fCBrsRENkfCfPZDdqx3bzTLCPeb/Fed7OvGujWZ1aqnlV2pyM997yIu7JzzBtC3SJ3ozw9oHnYpwe8YkS7FNWXBwN4oWpji3ts+PnzkWYmVkeLj69OgL4Q746rngqBCDwkgSezexMNfW2iVB2RJHupOKKfUKFe4wQ26z3XbR80kKzDDVMKprdoZrm+PEfAtwxo2M6rbZIdw/NSammhLW3RFS8Yng4JurUhAqy0y3x/dzB3t4Ip5sweCpRAMlNJUYFbYIABMoqUEp4XqfZnTvsbn0xrO1UQaaXC7YtWixuclG8wQm+nop8vkL367TS3Su19FMyQXWwqDJj8pIfSl4IhE4w0QklphkTC/TPBW/MPW7NNHd8giq7jweK3fQsuBca96BzUc6OjLyPi/TKOirxsNUUQHKzmrp4NgQgUHECpURnYGBAXL9+XeZyOZVn9bX59q42KsbYTaewNgVS9Djj27SzndaY9bSK9Qr9+wYmfA39WlF9rOq6d8ez2FsTU9sjSmgWKLGZoj0yU6FS9+j09QPL+bjnfFJ4fyeQJld/+7N8e3u73rFjhz1NG4BxM3DFDWE0aAkCSG6WgISPQAAC6RGgI8piaGhIjI8zNacKYSFjmllNe6fkslsL164j3cx03MSNa6O/+FtlGLSKQDV5Lhsc9xmqhp6hBEp57hUtfUlKhpRSQlrrhHPuhd65dJTaUXLlqOqSoxkn6+hX9N2Gnq3plFhBGLfAvV+kvTGlu2Rm6NbfnFfBDFVjf0KJzLQUctprfV/GxamitjlmauLD3cxQOQyHI9npGdtp6ukL/UFLExD6CgEIQKA023PkyBH58OFDMTs7K6OoSUavbgyVE7V03U59mOH1xvOaWMdB0fjAGFNHMyWNVPy8kZKRxkCJWuNZ1hkbutIGaMYCmhXKfnXJq3SRHf13z6gShSzS6S+acaGFI8a1lIIe7SIpxCLNLM1QEdIcdy6vuIy5EoWMYJEVfjEwfEH7uJAZuxtnswumqanJYhYGYzhtAkhu0hZx9BcCEFgbAUpiTtLy19jYmHjc0CDjfF5YrbmzrdxGBZqHMdw7+z/fwTTh42WQdTKTd6XGyiDwYUODq3vY4XbsYFguWpsI4luqWADJTRUHD02HAAQgAAEIQOCrAkhuMCogAAEIQAACEEiUAJKbRIUTnYEABCAAAQhAAMkNxgAEIAABCEAAAokSQHKTqHCiMxCAAAQgAAEIILnBGIAABCAAAQhAIFECSG4SFU50BgIQgAAEIAABJDcYAxCAAAQgAAEIJEoAyU2iwonOQAACEIAABCCA5AZjAAIQgAAEIACBRAkguUlUONEZCEAAAhCAAASQ3GAMQAACEIAABCCQKAEkN4kKJzoDAQhAAAIQgACSG4wBCEAAAhCAAAQSJYDkJlHhRGcgAAEIQAACEEBygzEAAQhAAAIQgECiBJDcJCqc6AwEIAABCEAAAkhuMAYgAAEIQAACEEiUAJKbRIUTnYEABCAAAQhAAMkNxgAEIAABCEAAAokSQHKTqHCiMxCAAAQgAAEIILnBGIAABCAAAQhAIFECSG4SFU50BgIQgAAEIAABJDcYAxCAAAQgAAEIJEoAyU2iwonOQAACEIAABCCA5AZjAAIQgAAEIACBRAkguUlUONEZCEAAAhCAAASQ3GAMQAACEIAABCCQKIF/A6W30Zc+M/vuAAAAAElFTkSuQmCC;" vertex="1" parent="1">
          <mxGeometry x="653.1600000000001" y="1410.1599999999999" width="51.55" height="40" as="geometry" />
        </mxCell>
        <mxCell id="RwD-iy4-zBNTc6Mavhsg-98" value="&lt;font style=&quot;font-size: 16px;&quot;&gt;Observability&lt;/font&gt;" style="text;html=1;align=center;verticalAlign=middle;whiteSpace=wrap;rounded=0;" vertex="1" parent="1">
          <mxGeometry x="595.2299999999996" y="1341" width="182.23" height="40" as="geometry" />
        </mxCell>
        <mxCell id="RwD-iy4-zBNTc6Mavhsg-100" value="" style="aspect=fixed;sketch=0;html=1;dashed=0;whitespace=wrap;fillColor=#2875E2;strokeColor=#ffffff;points=[[0.005,0.63,0],[0.1,0.2,0],[0.9,0.2,0],[0.5,0,0],[0.995,0.63,0],[0.72,0.99,0],[0.5,1,0],[0.28,0.99,0]];shape=mxgraph.kubernetes.icon2;prIcon=pod" vertex="1" parent="1">
          <mxGeometry x="451.25" y="1341" width="31.25" height="30" as="geometry" />
        </mxCell>
        <mxCell id="RwD-iy4-zBNTc6Mavhsg-101" value="" style="rounded=1;whiteSpace=wrap;html=1;fillColor=none;opacity=50;" vertex="1" parent="1">
          <mxGeometry x="612" y="1381" width="137.36" height="90" as="geometry" />
        </mxCell>
        <mxCell id="RwD-iy4-zBNTc6Mavhsg-102" value="" style="rounded=1;whiteSpace=wrap;html=1;fillColor=none;opacity=50;" vertex="1" parent="1">
          <mxGeometry x="765.23" y="1380.8899999999999" width="137.36" height="90" as="geometry" />
        </mxCell>
        <mxCell id="RwD-iy4-zBNTc6Mavhsg-97" value="" style="shape=image;verticalLabelPosition=bottom;labelBackgroundColor=default;verticalAlign=top;aspect=fixed;imageAspect=0;image=https://cdn.freebiesupply.com/logos/thumbs/2x/elasticsearch-logo.png;" vertex="1" parent="1">
          <mxGeometry x="801.49" y="1405.52" width="65.7" height="49.27" as="geometry" />
        </mxCell>
        <mxCell id="RwD-iy4-zBNTc6Mavhsg-106" value="" style="rounded=1;whiteSpace=wrap;html=1;fillColor=none;dashed=1;dashPattern=8 8;" vertex="1" parent="1">
          <mxGeometry x="699.78" y="1049.7400000000002" width="268.25" height="92.53" as="geometry" />
        </mxCell>
        <mxCell id="RwD-iy4-zBNTc6Mavhsg-107" value="" style="shape=image;verticalLabelPosition=bottom;labelBackgroundColor=default;verticalAlign=top;aspect=fixed;imageAspect=0;image=https://cdn.iconscout.com/icon/free/png-256/free-mysql-3628940-3030165.png;" vertex="1" parent="1">
          <mxGeometry x="748.56" y="1065.4" width="61.22" height="61.22" as="geometry" />
        </mxCell>
        <mxCell id="RwD-iy4-zBNTc6Mavhsg-108" value="" style="aspect=fixed;sketch=0;html=1;dashed=0;whitespace=wrap;fillColor=#2875E2;strokeColor=#ffffff;points=[[0.005,0.63,0],[0.1,0.2,0],[0.9,0.2,0],[0.5,0,0],[0.995,0.63,0],[0.72,0.99,0],[0.5,1,0],[0.28,0.99,0]];shape=mxgraph.kubernetes.icon2;prIcon=pod" vertex="1" parent="1">
          <mxGeometry x="709.56" y="1059.74" width="31.25" height="30" as="geometry" />
        </mxCell>
        <mxCell id="RwD-iy4-zBNTc6Mavhsg-109" value="&lt;font style=&quot;font-size: 14px;&quot;&gt;&lt;font style=&quot;font-size: 14px;&quot;&gt;Data&lt;/font&gt; &lt;font style=&quot;font-size: 14px;&quot;&gt;Base&lt;/font&gt;&lt;/font&gt;" style="text;html=1;align=center;verticalAlign=middle;whiteSpace=wrap;rounded=0;" vertex="1" parent="1">
          <mxGeometry x="793.8399999999999" y="1049.74" width="125.72" height="40" as="geometry" />
        </mxCell>
        <mxCell id="RwD-iy4-zBNTc6Mavhsg-110" value="" style="aspect=fixed;sketch=0;html=1;dashed=0;whitespace=wrap;fillColor=#2875E2;strokeColor=#ffffff;points=[[0.005,0.63,0],[0.1,0.2,0],[0.9,0.2,0],[0.5,0,0],[0.995,0.63,0],[0.72,0.99,0],[0.5,1,0],[0.28,0.99,0]];shape=mxgraph.kubernetes.icon2;prIcon=pod" vertex="1" parent="1">
          <mxGeometry x="1000" y="1117.27" width="31.25" height="30" as="geometry" />
        </mxCell>
        <mxCell id="RwD-iy4-zBNTc6Mavhsg-113" value="" style="shape=image;verticalLabelPosition=bottom;labelBackgroundColor=default;verticalAlign=top;aspect=fixed;imageAspect=0;image=https://upload.wikimedia.org/wikipedia/commons/thumb/2/27/PHP-logo.svg/2560px-PHP-logo.svg.png;" vertex="1" parent="1">
          <mxGeometry x="1040" y="1142.27" width="55.56" height="30" as="geometry" />
        </mxCell>
        <mxCell id="RwD-iy4-zBNTc6Mavhsg-114" value="&lt;font style=&quot;font-size: 14px;&quot;&gt;Ecommerce&lt;/font&gt;&lt;div style=&quot;font-size: 14px;&quot;&gt;&lt;font style=&quot;font-size: 14px;&quot;&gt;Replica (A)&lt;/font&gt;&lt;/div&gt;" style="text;html=1;align=center;verticalAlign=middle;whiteSpace=wrap;rounded=0;" vertex="1" parent="1">
          <mxGeometry x="1080" y="1117.27" width="125.72" height="40" as="geometry" />
        </mxCell>
        <mxCell id="RwD-iy4-zBNTc6Mavhsg-115" value="" style="rounded=1;whiteSpace=wrap;html=1;fillColor=none;dashed=1;dashPattern=8 8;" vertex="1" parent="1">
          <mxGeometry x="990.75" y="1224.71" width="268.25" height="92.53" as="geometry" />
        </mxCell>
        <mxCell id="RwD-iy4-zBNTc6Mavhsg-116" value="" style="aspect=fixed;sketch=0;html=1;dashed=0;whitespace=wrap;fillColor=#2875E2;strokeColor=#ffffff;points=[[0.005,0.63,0],[0.1,0.2,0],[0.9,0.2,0],[0.5,0,0],[0.995,0.63,0],[0.72,0.99,0],[0.5,1,0],[0.28,0.99,0]];shape=mxgraph.kubernetes.icon2;prIcon=pod" vertex="1" parent="1">
          <mxGeometry x="1000.75" y="1230.98" width="31.25" height="30" as="geometry" />
        </mxCell>
        <mxCell id="RwD-iy4-zBNTc6Mavhsg-117" value="" style="shape=image;verticalLabelPosition=bottom;labelBackgroundColor=default;verticalAlign=top;aspect=fixed;imageAspect=0;image=https://upload.wikimedia.org/wikipedia/commons/thumb/2/27/PHP-logo.svg/2560px-PHP-logo.svg.png;" vertex="1" parent="1">
          <mxGeometry x="1040.75" y="1255.98" width="55.56" height="30" as="geometry" />
        </mxCell>
        <mxCell id="RwD-iy4-zBNTc6Mavhsg-118" value="&lt;font style=&quot;font-size: 14px;&quot;&gt;Ecommerce&lt;/font&gt;&lt;div style=&quot;font-size: 14px;&quot;&gt;&lt;font style=&quot;font-size: 14px;&quot;&gt;Replica (B)&lt;/font&gt;&lt;/div&gt;" style="text;html=1;align=center;verticalAlign=middle;whiteSpace=wrap;rounded=0;" vertex="1" parent="1">
          <mxGeometry x="1080.75" y="1230.98" width="125.72" height="40" as="geometry" />
        </mxCell>
        <mxCell id="RwD-iy4-zBNTc6Mavhsg-119" value="" style="rounded=1;whiteSpace=wrap;html=1;fillColor=none;dashed=1;dashPattern=8 8;" vertex="1" parent="1">
          <mxGeometry x="990" y="1335" width="268.25" height="92.53" as="geometry" />
        </mxCell>
        <mxCell id="RwD-iy4-zBNTc6Mavhsg-120" value="" style="aspect=fixed;sketch=0;html=1;dashed=0;whitespace=wrap;fillColor=#2875E2;strokeColor=#ffffff;points=[[0.005,0.63,0],[0.1,0.2,0],[0.9,0.2,0],[0.5,0,0],[0.995,0.63,0],[0.72,0.99,0],[0.5,1,0],[0.28,0.99,0]];shape=mxgraph.kubernetes.icon2;prIcon=pod" vertex="1" parent="1">
          <mxGeometry x="1000" y="1341.27" width="31.25" height="30" as="geometry" />
        </mxCell>
        <mxCell id="RwD-iy4-zBNTc6Mavhsg-121" value="" style="shape=image;verticalLabelPosition=bottom;labelBackgroundColor=default;verticalAlign=top;aspect=fixed;imageAspect=0;image=https://upload.wikimedia.org/wikipedia/commons/thumb/2/27/PHP-logo.svg/2560px-PHP-logo.svg.png;" vertex="1" parent="1">
          <mxGeometry x="1040" y="1366.27" width="55.56" height="30" as="geometry" />
        </mxCell>
        <mxCell id="RwD-iy4-zBNTc6Mavhsg-122" value="&lt;font style=&quot;font-size: 14px;&quot;&gt;Ecommerce&lt;/font&gt;&lt;div style=&quot;font-size: 14px;&quot;&gt;&lt;font style=&quot;font-size: 14px;&quot;&gt;Replica (C)&lt;/font&gt;&lt;/div&gt;" style="text;html=1;align=center;verticalAlign=middle;whiteSpace=wrap;rounded=0;" vertex="1" parent="1">
          <mxGeometry x="1080" y="1341.27" width="125.72" height="40" as="geometry" />
        </mxCell>
        <mxCell id="RwD-iy4-zBNTc6Mavhsg-123" value="" style="aspect=fixed;sketch=0;html=1;dashed=0;whitespace=wrap;fillColor=#2875E2;strokeColor=#ffffff;points=[[0.005,0.63,0],[0.1,0.2,0],[0.9,0.2,0],[0.5,0,0],[0.995,0.63,0],[0.72,0.99,0],[0.5,1,0],[0.28,0.99,0]];shape=mxgraph.kubernetes.icon2;prIcon=hpa" vertex="1" parent="1">
          <mxGeometry x="1100" y="1443" width="50" height="48" as="geometry" />
        </mxCell>
        <mxCell id="RwD-iy4-zBNTc6Mavhsg-124" value="" style="rounded=1;whiteSpace=wrap;html=1;fillColor=none;opacity=20;" vertex="1" parent="1">
          <mxGeometry x="980" y="1079.73" width="290" height="411.27" as="geometry" />
        </mxCell>
        <mxCell id="RwD-iy4-zBNTc6Mavhsg-125" value="&lt;font style=&quot;font-size: 14px;&quot;&gt;Horizontal Pod&lt;/font&gt;&lt;div style=&quot;font-size: 14px;&quot;&gt;&lt;font style=&quot;font-size: 14px;&quot;&gt;Autoscaling&lt;/font&gt;&lt;/div&gt;" style="text;html=1;align=center;verticalAlign=middle;whiteSpace=wrap;rounded=0;" vertex="1" parent="1">
          <mxGeometry x="1062.1399999999999" y="1491" width="125.72" height="40" as="geometry" />
        </mxCell>
        <mxCell id="RwD-iy4-zBNTc6Mavhsg-128" style="edgeStyle=orthogonalEdgeStyle;rounded=0;orthogonalLoop=1;jettySize=auto;html=1;entryX=0.034;entryY=0.198;entryDx=0;entryDy=0;entryPerimeter=0;" edge="1" parent="1" source="RwD-iy4-zBNTc6Mavhsg-76" target="RwD-iy4-zBNTc6Mavhsg-124">
          <mxGeometry relative="1" as="geometry">
            <Array as="points">
              <mxPoint x="980" y="1271" />
              <mxPoint x="980" y="1161" />
            </Array>
          </mxGeometry>
        </mxCell>
        <mxCell id="RwD-iy4-zBNTc6Mavhsg-129" style="edgeStyle=orthogonalEdgeStyle;rounded=0;orthogonalLoop=1;jettySize=auto;html=1;" edge="1" parent="1" source="RwD-iy4-zBNTc6Mavhsg-76">
          <mxGeometry relative="1" as="geometry">
            <mxPoint x="990" y="1371" as="targetPoint" />
            <Array as="points">
              <mxPoint x="980" y="1271" />
              <mxPoint x="980" y="1371" />
            </Array>
          </mxGeometry>
        </mxCell>
        <mxCell id="RwD-iy4-zBNTc6Mavhsg-130" style="edgeStyle=orthogonalEdgeStyle;rounded=0;orthogonalLoop=1;jettySize=auto;html=1;entryX=0.034;entryY=0.464;entryDx=0;entryDy=0;entryPerimeter=0;" edge="1" parent="1" source="RwD-iy4-zBNTc6Mavhsg-76" target="RwD-iy4-zBNTc6Mavhsg-124">
          <mxGeometry relative="1" as="geometry" />
        </mxCell>
        <mxCell id="RwD-iy4-zBNTc6Mavhsg-135" value="&lt;span style=&quot;font-size: 14px;&quot;&gt;Logs&lt;/span&gt;" style="text;html=1;align=center;verticalAlign=middle;whiteSpace=wrap;rounded=0;" vertex="1" parent="1">
          <mxGeometry x="771.05" y="1471.95" width="125.72" height="40" as="geometry" />
        </mxCell>
        <mxCell id="RwD-iy4-zBNTc6Mavhsg-136" value="&lt;span style=&quot;font-size: 14px;&quot;&gt;Dashboard&lt;/span&gt;" style="text;html=1;align=center;verticalAlign=middle;whiteSpace=wrap;rounded=0;" vertex="1" parent="1">
          <mxGeometry x="617.8199999999999" y="1471.95" width="125.72" height="40" as="geometry" />
        </mxCell>
        <mxCell id="RwD-iy4-zBNTc6Mavhsg-137" value="&lt;span style=&quot;font-size: 14px;&quot;&gt;Metrics&lt;/span&gt;" style="text;html=1;align=center;verticalAlign=middle;whiteSpace=wrap;rounded=0;" vertex="1" parent="1">
          <mxGeometry x="463.6899999999998" y="1481" width="125.72" height="40" as="geometry" />
        </mxCell>
        <mxCell id="RwD-iy4-zBNTc6Mavhsg-139" value="&lt;span style=&quot;font-size: 18px;&quot;&gt;&lt;b&gt;Region: &lt;/b&gt;us-central1&lt;/span&gt;" style="text;html=1;strokeColor=none;fillColor=none;align=center;verticalAlign=middle;whiteSpace=wrap;rounded=0;" vertex="1" parent="1">
          <mxGeometry x="339.25" y="844.66" width="170.75" height="31.69" as="geometry" />
        </mxCell>
        <mxCell id="RwD-iy4-zBNTc6Mavhsg-140" value="" style="editableCssRules=.*;html=1;shape=image;verticalLabelPosition=bottom;labelBackgroundColor=#ffffff;verticalAlign=top;aspect=fixed;imageAspect=0;image=data:image/svg+xml,PHN2ZyB4bWxucz0iaHR0cDovL3d3dy53My5vcmcvMjAwMC9zdmciIHhtbG5zOnY9Imh0dHBzOi8vdmVjdGEuaW8vbmFubyIgd2lkdGg9IjIwIiBoZWlnaHQ9IjIwIiB2aWV3Qm94PSIwIDAgMjAgMjAiPiYjeGE7CTxzdHlsZSB0eXBlPSJ0ZXh0L2NzcyI+JiN4YTsJLnN0MHtmaWxsOiM0Mjg1ZjQ7fSYjeGE7CS5zdDF7ZmlsbDojNjY5ZGY2O30mI3hhOwkuc3Qye2ZpbGw6I2FlY2JmYTt9JiN4YTsJPC9zdHlsZT4mI3hhOwk8cGF0aCBjbGFzcz0ic3QyIiBkPSJNMTQgMGg2djZoLTZ6Ii8+JiN4YTsJPHBhdGggY2xhc3M9InN0MSIgZD0iTTE3IDBoM3Y2aC0zeiIvPiYjeGE7CTxwYXRoIGNsYXNzPSJzdDIiIGQ9Ik0xNCAxNGg2djZoLTZ6Ii8+JiN4YTsJPHBhdGggY2xhc3M9InN0MSIgZD0iTTE3IDE0aDN2NmgtM3oiLz4mI3hhOwk8cGF0aCBjbGFzcz0ic3QyIiBkPSJNMCAwaDZ2NkgweiIvPiYjeGE7CTxwYXRoIGNsYXNzPSJzdDEiIGQ9Ik0zIDBoM3Y2SDN6Ii8+JiN4YTsJPHBhdGggY2xhc3M9InN0MiIgZD0iTTAgMTRoNnY2SDB6Ii8+JiN4YTsJPGcgY2xhc3M9InN0MSI+JiN4YTsJCTxwYXRoIGQ9Ik0zIDE0aDN2Nkgzek02IDJoOHYySDZ6Ii8+JiN4YTsJCTxwYXRoIGQ9Ik02IDE2aDh2Mkg2ek0xNiA2aDJ2OGgtMnpNMiA2aDJ2OEgyeiIvPiYjeGE7CTwvZz4mI3hhOwk8cGF0aCBjbGFzcz0ic3QwIiBkPSJNMiA2aDJ2Mkgyem0xNCAwaDJ2MmgtMnpNNiAyaDJ2Mkg2em0wIDE0aDJ2Mkg2eiIvPiYjeGE7PC9zdmc+;" vertex="1" parent="1">
          <mxGeometry x="298.25" y="840" width="41" height="41" as="geometry" />
        </mxCell>
        <mxCell id="RwD-iy4-zBNTc6Mavhsg-141" value="" style="sketch=0;html=1;verticalAlign=top;labelPosition=center;verticalLabelPosition=bottom;align=center;spacingTop=-6;fontSize=11;fontStyle=1;fontColor=#999999;shape=image;aspect=fixed;imageAspect=0;image=data:image/svg+xml,PHN2ZyB4bWxucz0iaHR0cDovL3d3dy53My5vcmcvMjAwMC9zdmciIHhtbG5zOnY9Imh0dHBzOi8vdmVjdGEuaW8vbmFubyIgd2lkdGg9IjQwMi4zNDMyMDA2ODM1OTM3NSIgaGVpZ2h0PSI0MTYuMDAyNTMyOTU4OTg0NCIgdmlld0JveD0iMCAwLjAwMDQ5OTk2Mzc2MDM3NTk3NjYgNDAyLjM0MzIwMDY4MzU5Mzc1IDQxNi4wMDI1MzI5NTg5ODQ0Ij4mI3hhOwk8c3R5bGUgdHlwZT0idGV4dC9jc3MiPiYjeGE7CS5zdDB7ZmlsbDojNDI4NWY0O30mI3hhOwkuc3Qxe2ZpbGw6IzY2OWRmNjt9JiN4YTsJLnN0MntmaWxsOiNhZWNiZmE7fSYjeGE7CTwvc3R5bGU+JiN4YTsJPHBhdGggY2xhc3M9InN0MiIgZD0iTTM2Ni4xNyA5Mi4wMDNjLTE5LjA1IDAtMzYgMTYuODItMzYgMzUuNzYgMCAxMi42MiA4LjQ2IDI1LjI0IDE5LjA1IDMxLjU1djE0Ny4zbC0xMTAuMDUgNjUuMjEgMTYuOTMgMjcuMzUgMTE4LjUxLTY5LjQyYzQuMjQtMi4xIDguNDctOC40MSA4LjQ3LTE0Ljczdi0xNTUuNjdjMTIuNzEtNi4zNSAxOS4wOS0xOC45MyAxOS4wOS0zMS41NSAyLjA4LTE4Ljk0LTE0Ljg1LTM1LjgtMzYtMzUuOHptLTM4LjExLTIzLjFMMjA5LjU1IDEuNTgzYy00LjI0LTIuMTEtMTAuNTktMi4xMS0xNi45MyAwTDU3LjE3IDc5LjQxM0EzNiAzNiAwIDAgMCAzNiA3My4xMDNjLTE5IDAtMzYgMTYuODMtMzYgMzUuNzZzMTYuOTMgMzUuNzcgMzYgMzUuNzcgMzYtMTYuODMgMzYtMzUuNzdsMTI5LjEtNzMuNjIgMTEwIDYzLjExem0tMTQzLjg5IDI3Ny42OHEtOS41MyAwLTE5IDYuMzFsLTExMC02My4xMXYtMTI2LjIyaC0zNHYxMzQuNjNjMCA2LjMyIDQuMjMgMTIuNjMgOC40NiAxNC43M2wxMTguNTQgNjUuMjF2Mi4xMWMwIDE4LjkzIDE2LjkzIDM1Ljc2IDM2IDM1Ljc2czM2LTE2LjgzIDM2LTM1Ljc2LTE3LTMzLjY2LTM2LTMzLjY2eiIvPiYjeGE7CTxwYXRoIGNsYXNzPSJzdDEiIGQ9Ik05Ny4zOCAxMzYuMjEzbDEwNS44MiA1OC45MSAxMDMuNy01OC45MS0xMDMuNy02MXptLTYuMzUgNjcuMzJsMTEyLjE3IDYzLjExdi01MC40OWwtMTEyLjE3LTY1LjIxem0wIDYzLjExbDExMi4xNyA2NS4yMXYtNDQuMTdsLTExMi4xNy02NS4yMnoiLz4mI3hhOwk8cGF0aCBjbGFzcz0ic3QwIiBkPSJNMjAzLjE3IDIxNi4xMjN2NTAuNTZsMTEyLjE2LTY1LjI5di01MC4zOXptOTItMjBhOC4xNiA4LjE2IDAgMSAxIDguMTYtOC4xNiA4LjE5IDguMTkgMCAwIDEtOC4xNiA4LjE2em0tOTIgOTEuNTJ2NDQuMTZsMTEyLjE2LTY1LjEydi00NC4xNnptOTItMjIuODhhOC4xNiA4LjE2IDAgMSAxIDguMTYtOC4xNiA4LjE5IDguMTkgMCAwIDEtOC4xNiA4LjE2eiIvPiYjeGE7PC9zdmc+;" vertex="1" parent="1">
          <mxGeometry x="386.47" y="1033.26" width="45.48" height="47.74" as="geometry" />
        </mxCell>
        <mxCell id="RwD-iy4-zBNTc6Mavhsg-142" value="&lt;span style=&quot;font-size: 18px;&quot;&gt;GKE Cluster&lt;/span&gt;" style="text;html=1;strokeColor=none;fillColor=none;align=center;verticalAlign=middle;whiteSpace=wrap;rounded=0;" vertex="1" parent="1">
          <mxGeometry x="439" y="1041.28" width="106.82" height="31.69" as="geometry" />
        </mxCell>
      </root>
    </mxGraphModel>
  </diagram>
</mxfile>
